{
	"patcher" : 	{
		"fileversion" : 1,
		"appversion" : 		{
			"major" : 6,
			"minor" : 1,
			"revision" : 7,
			"architecture" : "x86"
		}
,
		"rect" : [ 542.0, 75.0, 358.0, 279.0 ],
		"bglocked" : 0,
		"openinpresentation" : 1,
		"default_fontsize" : 10.0,
		"default_fontface" : 0,
		"default_fontname" : "Verdana",
		"gridonopen" : 0,
		"gridsize" : [ 5.0, 5.0 ],
		"gridsnaponopen" : 0,
		"statusbarvisible" : 2,
		"toolbarvisible" : 1,
		"boxanimatetime" : 200,
		"imprint" : 0,
		"enablehscroll" : 1,
		"enablevscroll" : 1,
		"devicewidth" : 0.0,
		"description" : "",
		"digest" : "",
		"tags" : "",
		"boxes" : [ 			{
				"box" : 				{
					"border" : 1,
					"fontname" : "Verdana",
					"fontsize" : 10.0,
					"id" : "obj-8",
					"maxclass" : "textbutton",
					"mode" : 1,
					"numinlets" : 1,
					"numoutlets" : 3,
					"outlettype" : [ "", "", "int" ],
					"parameter_enable" : 0,
					"patching_rect" : [ 34.0, 184.0, 68.466904, 17.933016 ],
					"presentation" : 1,
					"presentation_rect" : [ 35.394554, 47.0, 68.84684, 16.0 ],
					"prototypename" : "jamoma on off",
					"rounded" : 8.0,
					"text" : "interpolate",
					"texton" : "interpolate",
					"varname" : "interpolate"
				}

			}
, 			{
				"box" : 				{
					"border" : 1,
					"fontname" : "Verdana",
					"fontsize" : 10.0,
					"id" : "obj-6",
					"maxclass" : "textbutton",
					"mode" : 1,
					"numinlets" : 1,
					"numoutlets" : 3,
					"outlettype" : [ "", "", "int" ],
					"parameter_enable" : 0,
					"patching_rect" : [ 30.0, 102.0, 68.287193, 19.000002 ],
					"presentation" : 1,
					"presentation_rect" : [ 35.394554, 25.0, 64.251328, 16.0 ],
					"prototypename" : "jamoma settings",
					"rounded" : 8.0,
					"text" : "fullscreen",
					"texton" : "fullscreen",
					"varname" : "fullscreen"
				}

			}
, 			{
				"box" : 				{
					"fontname" : "Verdana",
					"fontsize" : 10.0,
					"id" : "obj-7",
					"linecount" : 2,
					"maxclass" : "newobj",
					"numinlets" : 1,
					"numoutlets" : 4,
					"outlettype" : [ "", "", "", "" ],
					"patching_rect" : [ 31.0, 209.0, 107.0, 31.0 ],
					"text" : "j.remote interpolate",
					"varname" : "interpolate[1]"
				}

			}
, 			{
				"box" : 				{
					"fontname" : "Verdana",
					"fontsize" : 10.0,
					"id" : "obj-9",
					"linecount" : 2,
					"maxclass" : "newobj",
					"numinlets" : 1,
					"numoutlets" : 4,
					"outlettype" : [ "", "", "", "" ],
					"patching_rect" : [ 30.0, 129.0, 102.0, 31.0 ],
					"text" : "j.remote fullscreen",
					"varname" : "fullscreen[1]"
				}

			}
, 			{
				"box" : 				{
					"fontname" : "Verdana",
					"fontsize" : 10.0,
					"id" : "obj-16",
					"maxclass" : "newobj",
					"numinlets" : 1,
					"numoutlets" : 2,
					"outlettype" : [ "", "" ],
					"patching_rect" : [ 197.0, 129.0, 40.0, 19.0 ],
					"text" : "j.view",
					"varname" : "j.model"
				}

			}
, 			{
				"box" : 				{
					"id" : "obj-34",
					"maxclass" : "j.ui",
					"numinlets" : 1,
					"numoutlets" : 1,
					"outlettype" : [ "" ],
					"presentation" : 1,
					"presentation_rect" : [ 0.0, 0.0, 150.0, 70.0 ],
					"text" : "/noModelAddress"
				}

			}
 ],
		"lines" : [ 			{
				"patchline" : 				{
					"destination" : [ "obj-9", 0 ],
					"disabled" : 0,
					"hidden" : 0,
					"source" : [ "obj-6", 0 ]
				}

			}
, 			{
				"patchline" : 				{
					"destination" : [ "obj-8", 0 ],
					"disabled" : 0,
					"hidden" : 0,
					"midpoints" : [ 40.5, 249.0, 21.0, 249.0, 21.0, 178.0, 43.5, 178.0 ],
					"source" : [ "obj-7", 0 ]
				}

			}
, 			{
				"patchline" : 				{
					"destination" : [ "obj-7", 0 ],
					"disabled" : 0,
					"hidden" : 0,
					"source" : [ "obj-8", 0 ]
				}

			}
, 			{
				"patchline" : 				{
					"destination" : [ "obj-6", 0 ],
					"disabled" : 0,
					"hidden" : 0,
					"midpoints" : [ 39.5, 169.0, 16.0, 169.0, 16.0, 82.0, 39.5, 82.0 ],
					"source" : [ "obj-9", 0 ]
				}

			}
 ],
		"dependency_cache" : [ 			{
				"name" : "j.ui.mxo",
				"type" : "iLaX"
			}
, 			{
				"name" : "j.view.mxo",
				"type" : "iLaX"
			}
, 			{
				"name" : "j.remote.mxo",
				"type" : "iLaX"
			}
 ]
	}

}
