{
	"patcher" : 	{
		"fileversion" : 1,
		"appversion" : 		{
			"major" : 6,
			"minor" : 0,
			"revision" : 8
		}
,
		"rect" : [ 787.0, 301.0, 462.0, 296.0 ],
		"bglocked" : 0,
		"openinpresentation" : 0,
		"default_fontsize" : 10.0,
		"default_fontface" : 0,
		"default_fontname" : "Verdana",
		"gridonopen" : 0,
		"gridsize" : [ 5.0, 5.0 ],
		"gridsnaponopen" : 0,
		"statusbarvisible" : 2,
		"toolbarvisible" : 1,
		"boxanimatetime" : 200,
		"imprint" : 0,
		"enablehscroll" : 1,
		"enablevscroll" : 1,
		"devicewidth" : 0.0,
		"description" : "",
		"digest" : "",
		"tags" : "",
		"boxes" : [ 			{
				"box" : 				{
					"fontname" : "Verdana",
					"fontsize" : 10.0,
					"frgb" : 0.0,
					"id" : "obj-11",
					"maxclass" : "comment",
					"numinlets" : 1,
					"numoutlets" : 0,
					"patching_rect" : [ 94.0, 75.0, 172.0, 19.0 ],
					"text" : "change destination dynamically"
				}

			}
, 			{
				"box" : 				{
					"bgcolor" : [ 0.619608, 0.0, 0.360784, 0.7 ],
					"fontname" : "Verdana",
					"fontsize" : 10.0,
					"id" : "obj-3",
					"maxclass" : "message",
					"numinlets" : 2,
					"numoutlets" : 1,
					"outlettype" : [ "" ],
					"patching_rect" : [ 94.0, 95.0, 123.0, 17.0 ],
					"text" : "address other/address",
					"textcolor" : [ 1.0, 1.0, 1.0, 1.0 ]
				}

			}
, 			{
				"box" : 				{
					"fontname" : "Verdana",
					"fontsize" : 10.0,
					"id" : "obj-13",
					"maxclass" : "newobj",
					"numinlets" : 2,
					"numoutlets" : 1,
					"outlettype" : [ "signal" ],
					"patching_rect" : [ 32.0, 95.0, 54.0, 19.0 ],
					"text" : "cycle~ 1"
				}

			}
, 			{
				"box" : 				{
					"fontname" : "Verdana",
					"fontsize" : 10.0,
					"id" : "obj-4",
					"maxclass" : "flonum",
					"numinlets" : 1,
					"numoutlets" : 2,
					"outlettype" : [ "float", "bang" ],
					"parameter_enable" : 0,
					"patching_rect" : [ 228.0, 148.0, 50.0, 19.0 ]
				}

			}
, 			{
				"box" : 				{
					"fontname" : "Verdana",
					"fontsize" : 10.0,
					"id" : "obj-8",
					"maxclass" : "newobj",
					"numinlets" : 1,
					"numoutlets" : 2,
					"outlettype" : [ "", "" ],
					"patching_rect" : [ 228.0, 121.0, 162.0, 19.0 ],
					"text" : "jcom.parameter myParameter"
				}

			}
, 			{
				"box" : 				{
					"color" : [ 0.619608, 0.0, 0.360784, 0.701961 ],
					"fontname" : "Verdana",
					"fontsize" : 10.0,
					"id" : "obj-9",
					"maxclass" : "newobj",
					"numinlets" : 1,
					"numoutlets" : 1,
					"outlettype" : [ "" ],
					"patching_rect" : [ 32.0, 121.0, 141.0, 19.0 ],
					"text" : "jcom.send~ myParameter"
				}

			}
, 			{
				"box" : 				{
					"id" : "obj-6",
					"maxclass" : "ezdac~",
					"numinlets" : 2,
					"numoutlets" : 0,
					"patching_rect" : [ 411.0, 75.0, 45.0, 45.0 ]
				}

			}
, 			{
				"box" : 				{
					"fontname" : "Verdana",
					"fontsize" : 10.0,
					"id" : "obj-5",
					"maxclass" : "newobj",
					"numinlets" : 2,
					"numoutlets" : 1,
					"outlettype" : [ "signal" ],
					"patching_rect" : [ 34.0, 186.0, 54.0, 19.0 ],
					"text" : "cycle~ 1"
				}

			}
, 			{
				"box" : 				{
					"id" : "obj-1",
					"maxclass" : "scope~",
					"numinlets" : 2,
					"numoutlets" : 0,
					"patching_rect" : [ 228.0, 238.0, 76.0, 37.0 ]
				}

			}
, 			{
				"box" : 				{
					"color" : [ 0.619608, 0.0, 0.360784, 0.701961 ],
					"fontname" : "Verdana",
					"fontsize" : 10.0,
					"id" : "obj-12",
					"maxclass" : "newobj",
					"numinlets" : 1,
					"numoutlets" : 1,
					"outlettype" : [ "" ],
					"patching_rect" : [ 34.0, 211.0, 133.0, 19.0 ],
					"text" : "jcom.send~ in.mySignal"
				}

			}
, 			{
				"box" : 				{
					"fontname" : "Verdana",
					"fontsize" : 10.0,
					"id" : "obj-7",
					"maxclass" : "newobj",
					"numinlets" : 1,
					"numoutlets" : 2,
					"outlettype" : [ "signal", "" ],
					"patching_rect" : [ 228.0, 211.0, 106.0, 19.0 ],
					"text" : "jcom.in~ mySignal"
				}

			}
, 			{
				"box" : 				{
					"args" : [ "@name", "jcom.send~", "@description", "sending audio signal to a jcom.in~" ],
					"bgmode" : 1,
					"id" : "obj-2",
					"maxclass" : "bpatcher",
					"name" : "jcom.maxhelpui.maxpat",
					"numinlets" : 1,
					"numoutlets" : 0,
					"patching_rect" : [ 0.0, 0.0, 462.0, 70.0 ],
					"varname" : "maxhelpui"
				}

			}
 ],
		"lines" : [ 			{
				"patchline" : 				{
					"destination" : [ "obj-9", 0 ],
					"disabled" : 0,
					"hidden" : 0,
					"source" : [ "obj-13", 0 ]
				}

			}
, 			{
				"patchline" : 				{
					"destination" : [ "obj-9", 0 ],
					"disabled" : 0,
					"hidden" : 0,
					"midpoints" : [ 103.5, 117.0, 41.5, 117.0 ],
					"source" : [ "obj-3", 0 ]
				}

			}
, 			{
				"patchline" : 				{
					"destination" : [ "obj-12", 0 ],
					"disabled" : 0,
					"hidden" : 0,
					"source" : [ "obj-5", 0 ]
				}

			}
, 			{
				"patchline" : 				{
					"destination" : [ "obj-1", 0 ],
					"disabled" : 0,
					"hidden" : 0,
					"source" : [ "obj-7", 0 ]
				}

			}
, 			{
				"patchline" : 				{
					"destination" : [ "obj-4", 0 ],
					"disabled" : 0,
					"hidden" : 0,
					"source" : [ "obj-8", 0 ]
				}

			}
 ],
		"dependency_cache" : [ 			{
				"name" : "jcom.maxhelpui.maxpat",
				"bootpath" : "/Users/WALL-E/Documents/Jamoma/Modules/Modular/Max/library/components/maxhelpui",
				"patcherrelativepath" : "../../../Max/library/components/maxhelpui",
				"type" : "JSON",
				"implicit" : 1
			}
, 			{
				"name" : "jcom.maxhelpuiButton.png",
				"bootpath" : "/Users/WALL-E/Documents/Jamoma/Modules/Modular/Max/library/components/maxhelpui",
				"patcherrelativepath" : "../../../Max/library/components/maxhelpui",
				"type" : "PNG ",
				"implicit" : 1
			}
, 			{
				"name" : "jcom.maxhelpuiResize.js",
				"bootpath" : "/Users/WALL-E/Documents/Jamoma/Modules/Modular/Max/library/components/maxhelpui",
				"patcherrelativepath" : "../../../Max/library/components/maxhelpui",
				"type" : "TEXT",
				"implicit" : 1
			}
, 			{
				"name" : "jcom.jamomaPath.maxpat",
				"bootpath" : "/Users/WALL-E/Documents/Jamoma/Modules/Modular/Max/library/components/jamomaPath",
				"patcherrelativepath" : "../../../Max/library/components/jamomaPath",
				"type" : "JSON",
				"implicit" : 1
			}
, 			{
				"name" : "jcom.route.mxo",
				"type" : "iLaX"
			}
, 			{
				"name" : "jcom.receive.mxo",
				"type" : "iLaX"
			}
, 			{
				"name" : "jcom.send.mxo",
				"type" : "iLaX"
			}
, 			{
				"name" : "jcom.in~.mxo",
				"type" : "iLaX"
			}
, 			{
				"name" : "jcom.send~.mxo",
				"type" : "iLaX"
			}
, 			{
				"name" : "jcom.parameter.mxo",
				"type" : "iLaX"
			}
 ]
	}

}
