{
	"patcher" : 	{
		"fileversion" : 1,
		"rect" : [ 94.0, 44.0, 924.0, 563.0 ],
		"bglocked" : 0,
		"defrect" : [ 94.0, 44.0, 924.0, 563.0 ],
		"openrect" : [ 0.0, 0.0, 0.0, 0.0 ],
		"openinpresentation" : 0,
		"default_fontsize" : 10.0,
		"default_fontface" : 0,
		"default_fontname" : "Verdana",
		"gridonopen" : 0,
		"gridsize" : [ 5.0, 5.0 ],
		"gridsnaponopen" : 0,
		"toolbarvisible" : 1,
		"boxanimatetime" : 200,
		"imprint" : 0,
		"enablehscroll" : 1,
		"enablevscroll" : 1,
		"boxes" : [ 			{
				"box" : 				{
					"args" : [ "@name", "jmod.xfade%", "@description", "Crossfade between two incoming video matrices" ],
					"bgmode" : 1,
					"id" : "obj-6",
					"maxclass" : "bpatcher",
					"name" : "jcom.maxhelpui.maxpat",
					"numinlets" : 1,
					"numoutlets" : 0,
					"patching_rect" : [ 0.0, 0.0, 924.0, 70.0 ],
					"prototypename" : "bphelp",
					"varname" : "maxhelpui"
				}

			}
, 			{
				"box" : 				{
					"args" : [ "input.right" ],
					"id" : "obj-1",
					"lockeddragscroll" : 1,
					"maxclass" : "bpatcher",
					"name" : "jmod.input%.maxpat",
					"numinlets" : 2,
					"numoutlets" : 2,
					"outlettype" : [ "", "" ],
					"patching_rect" : [ 588.0, 91.0, 300.0, 70.0 ],
					"presentation_rect" : [ 0.0, 0.0, 300.0, 70.0 ],
					"varname" : "/input%2"
				}

			}
, 			{
				"box" : 				{
					"args" : [ "input.left" ],
					"id" : "obj-2",
					"lockeddragscroll" : 1,
					"maxclass" : "bpatcher",
					"name" : "jmod.input%.maxpat",
					"numinlets" : 2,
					"numoutlets" : 2,
					"outlettype" : [ "", "" ],
					"patching_rect" : [ 283.0, 91.0, 300.0, 70.0 ],
					"presentation_rect" : [ 0.0, 0.0, 300.0, 70.0 ],
					"varname" : "/input%1"
				}

			}
, 			{
				"box" : 				{
					"fontname" : "Verdana",
					"fontsize" : 10.0,
					"hidden" : 1,
					"id" : "obj-3",
					"maxclass" : "newobj",
					"numinlets" : 0,
					"numoutlets" : 1,
					"outlettype" : [ "" ],
					"patching_rect" : [ 283.0, 162.0, 93.0, 19.0 ],
					"text" : "r jmod.op%.cmd"
				}

			}
, 			{
				"box" : 				{
					"fontname" : "Verdana",
					"fontsize" : 10.0,
					"hidden" : 1,
					"id" : "obj-4",
					"maxclass" : "newobj",
					"numinlets" : 1,
					"numoutlets" : 0,
					"patching_rect" : [ 33.0, 237.0, 94.0, 19.0 ],
					"text" : "s jmod.op%.cmd"
				}

			}
, 			{
				"box" : 				{
					"args" : [  ],
					"id" : "obj-5",
					"lockeddragscroll" : 1,
					"maxclass" : "bpatcher",
					"name" : "jmod.video_params.maxpat",
					"numinlets" : 0,
					"numoutlets" : 1,
					"outlettype" : [ "" ],
					"patching_rect" : [ 33.0, 89.0, 215.0, 163.0 ]
				}

			}
, 			{
				"box" : 				{
					"fontname" : "Verdana",
					"fontsize" : 10.0,
					"hidden" : 1,
					"id" : "obj-7",
					"maxclass" : "newobj",
					"numinlets" : 1,
					"numoutlets" : 1,
					"outlettype" : [ "" ],
					"patching_rect" : [ 209.0, 261.0, 74.0, 19.0 ],
					"text" : "loadmess set"
				}

			}
, 			{
				"box" : 				{
					"fontname" : "Verdana",
					"fontsize" : 10.0,
					"id" : "obj-8",
					"maxclass" : "message",
					"numinlets" : 2,
					"numoutlets" : 1,
					"outlettype" : [ "" ],
					"patching_rect" : [ 283.0, 263.0, 112.0, 17.0 ],
					"text" : "/video/preview 0"
				}

			}
, 			{
				"box" : 				{
					"depthbuffer" : 0,
					"id" : "obj-10",
					"maxclass" : "jit.pwindow",
					"numinlets" : 1,
					"numoutlets" : 2,
					"outlettype" : [ "", "" ],
					"patching_rect" : [ 282.0, 287.0, 320.0, 240.0 ]
				}

			}
, 			{
				"box" : 				{
					"args" : [  ],
					"id" : "obj-11",
					"lockeddragscroll" : 1,
					"maxclass" : "bpatcher",
					"name" : "jmod.xfade%.maxpat",
					"numinlets" : 3,
					"numoutlets" : 2,
					"outlettype" : [ "", "" ],
					"patching_rect" : [ 283.0, 183.0, 150.0, 70.0 ],
					"presentation_rect" : [ 0.0, 0.0, 150.0, 70.0 ],
					"varname" : "/xfade%"
				}

			}
 ],
		"lines" : [ 			{
				"patchline" : 				{
					"destination" : [ "obj-11", 2 ],
					"hidden" : 0,
					"midpoints" : [ 878.5, 180.5, 423.5, 180.5 ],
					"source" : [ "obj-1", 1 ]
				}

			}
, 			{
				"patchline" : 				{
					"destination" : [ "obj-10", 0 ],
					"hidden" : 0,
					"midpoints" : [ 423.5, 282.0, 291.5, 282.0 ],
					"source" : [ "obj-11", 1 ]
				}

			}
, 			{
				"patchline" : 				{
					"destination" : [ "obj-8", 1 ],
					"hidden" : 0,
					"midpoints" : [ 292.5, 260.5, 385.5, 260.5 ],
					"source" : [ "obj-11", 0 ]
				}

			}
, 			{
				"patchline" : 				{
					"destination" : [ "obj-11", 1 ],
					"hidden" : 0,
					"midpoints" : [ 573.5, 172.0, 358.0, 172.0 ],
					"source" : [ "obj-2", 1 ]
				}

			}
, 			{
				"patchline" : 				{
					"destination" : [ "obj-11", 0 ],
					"hidden" : 1,
					"midpoints" : [  ],
					"source" : [ "obj-3", 0 ]
				}

			}
, 			{
				"patchline" : 				{
					"destination" : [ "obj-4", 0 ],
					"hidden" : 1,
					"midpoints" : [  ],
					"source" : [ "obj-5", 0 ]
				}

			}
, 			{
				"patchline" : 				{
					"destination" : [ "obj-8", 0 ],
					"hidden" : 1,
					"midpoints" : [ 218.5, 260.0, 292.5, 260.0 ],
					"source" : [ "obj-7", 0 ]
				}

			}
 ]
	}

}
