{
	"patcher" : 	{
		"fileversion" : 1,
		"appversion" : 		{
			"major" : 6,
			"minor" : 1,
			"revision" : 7,
			"architecture" : "x86"
		}
,
		"rect" : [ 70.0, 45.0, 700.0, 381.0 ],
		"bglocked" : 0,
		"openinpresentation" : 0,
		"default_fontsize" : 10.0,
		"default_fontface" : 0,
		"default_fontname" : "Verdana",
		"gridonopen" : 0,
		"gridsize" : [ 5.0, 5.0 ],
		"gridsnaponopen" : 0,
		"statusbarvisible" : 2,
		"toolbarvisible" : 1,
		"boxanimatetime" : 200,
		"imprint" : 0,
		"enablehscroll" : 1,
		"enablevscroll" : 1,
		"devicewidth" : 0.0,
		"description" : "",
		"digest" : "",
		"tags" : "",
		"boxes" : [ 			{
				"box" : 				{
					"fontname" : "Verdana",
					"fontsize" : 10.0,
					"frgb" : 0.0,
					"id" : "obj-4",
					"linecount" : 2,
					"maxclass" : "comment",
					"numinlets" : 1,
					"numoutlets" : 0,
					"patching_rect" : [ 190.0, 230.0, 152.0, 31.0 ],
					"text" : "an external matrix_map is needed for mode \"map\""
				}

			}
, 			{
				"box" : 				{
					"id" : "obj-5",
					"maxclass" : "jit.pwindow",
					"numinlets" : 1,
					"numoutlets" : 2,
					"outlettype" : [ "", "" ],
					"patching_rect" : [ 354.0, 108.0, 320.0, 240.0 ],
					"presentation_rect" : [ 572.0, 113.0, 320.0, 240.0 ]
				}

			}
, 			{
				"box" : 				{
					"handoff" : "",
					"id" : "obj-28",
					"maxclass" : "ubutton",
					"numinlets" : 1,
					"numoutlets" : 4,
					"outlettype" : [ "bang", "bang", "", "int" ],
					"patching_rect" : [ 91.0, 354.0, 147.0, 19.0 ]
				}

			}
, 			{
				"box" : 				{
					"fontname" : "Arial",
					"fontsize" : 9.0,
					"hidden" : 1,
					"id" : "obj-29",
					"linecount" : 2,
					"maxclass" : "message",
					"numinlets" : 2,
					"numoutlets" : 1,
					"outlettype" : [ "" ],
					"patching_rect" : [ 91.0, 385.0, 194.0, 25.0 ],
					"text" : ";\rmax launchbrowser http://vimeo.com/1163538"
				}

			}
, 			{
				"box" : 				{
					"fontname" : "Verdana",
					"fontsize" : 10.0,
					"frgb" : 0.0,
					"id" : "obj-11",
					"maxclass" : "comment",
					"numinlets" : 1,
					"numoutlets" : 0,
					"patching_rect" : [ 91.0, 354.0, 150.0, 19.0 ],
					"text" : "http://vimeo.com/1163538",
					"textcolor" : [ 0.0, 0.6, 1.0, 1.0 ],
					"underline" : 1
				}

			}
, 			{
				"box" : 				{
					"fontname" : "Verdana",
					"fontsize" : 10.0,
					"frgb" : 0.0,
					"id" : "obj-9",
					"linecount" : 2,
					"maxclass" : "comment",
					"numinlets" : 1,
					"numoutlets" : 0,
					"patching_rect" : [ 68.0, 323.0, 201.0, 31.0 ],
					"text" : "what can you do with slit-scanning? \nwatch this:"
				}

			}
, 			{
				"box" : 				{
					"color" : [ 0.0, 0.615686, 0.0, 1.0 ],
					"fontname" : "Verdana",
					"fontsize" : 14.0,
					"id" : "obj-6",
					"maxclass" : "newobj",
					"numinlets" : 1,
					"numoutlets" : 1,
					"outlettype" : [ "jit_matrix" ],
					"patcher" : 					{
						"fileversion" : 1,
						"appversion" : 						{
							"major" : 6,
							"minor" : 1,
							"revision" : 7,
							"architecture" : "x86"
						}
,
						"rect" : [ 155.0, 44.0, 540.0, 397.0 ],
						"bglocked" : 0,
						"openinpresentation" : 0,
						"default_fontsize" : 12.0,
						"default_fontface" : 0,
						"default_fontname" : "Arial",
						"gridonopen" : 0,
						"gridsize" : [ 15.0, 15.0 ],
						"gridsnaponopen" : 0,
						"statusbarvisible" : 2,
						"toolbarvisible" : 1,
						"boxanimatetime" : 200,
						"imprint" : 0,
						"enablehscroll" : 1,
						"enablevscroll" : 1,
						"devicewidth" : 0.0,
						"description" : "",
						"digest" : "",
						"tags" : "",
						"boxes" : [ 							{
								"box" : 								{
									"fontname" : "Arial",
									"fontsize" : 12.0,
									"frgb" : 0.0,
									"id" : "obj-9",
									"linecount" : 2,
									"maxclass" : "comment",
									"numinlets" : 1,
									"numoutlets" : 0,
									"patching_rect" : [ 263.0, 252.0, 175.0, 33.0 ],
									"text" : "mode \"map\" of slitscan needs an external mapping matrix, "
								}

							}
, 							{
								"box" : 								{
									"fontname" : "Arial",
									"fontsize" : 12.0,
									"id" : "obj-10",
									"maxclass" : "newobj",
									"numinlets" : 1,
									"numoutlets" : 1,
									"outlettype" : [ "" ],
									"patching_rect" : [ 22.0, 139.0, 77.0, 20.0 ],
									"text" : "prepend dim"
								}

							}
, 							{
								"box" : 								{
									"fontname" : "Arial",
									"fontsize" : 12.0,
									"id" : "obj-6",
									"maxclass" : "newobj",
									"numinlets" : 2,
									"numoutlets" : 2,
									"outlettype" : [ "", "" ],
									"patching_rect" : [ 23.0, 104.0, 62.0, 20.0 ],
									"text" : "zl change"
								}

							}
, 							{
								"box" : 								{
									"fontname" : "Arial",
									"fontsize" : 12.0,
									"id" : "obj-4",
									"maxclass" : "newobj",
									"numinlets" : 2,
									"numoutlets" : 2,
									"outlettype" : [ "", "" ],
									"patching_rect" : [ 21.0, 85.0, 61.0, 20.0 ],
									"text" : "route dim"
								}

							}
, 							{
								"box" : 								{
									"fontname" : "Arial",
									"fontsize" : 12.0,
									"id" : "obj-3",
									"maxclass" : "newobj",
									"numinlets" : 1,
									"numoutlets" : 1,
									"outlettype" : [ "" ],
									"patching_rect" : [ 21.0, 62.0, 75.0, 20.0 ],
									"text" : "jit.matrixinfo"
								}

							}
, 							{
								"box" : 								{
									"fontname" : "Arial",
									"fontsize" : 12.0,
									"id" : "obj-7",
									"maxclass" : "number",
									"numinlets" : 1,
									"numoutlets" : 2,
									"outlettype" : [ "int", "bang" ],
									"parameter_enable" : 0,
									"patching_rect" : [ 451.0, 112.0, 50.0, 20.0 ]
								}

							}
, 							{
								"box" : 								{
									"fontname" : "Arial",
									"fontsize" : 12.0,
									"id" : "obj-5",
									"maxclass" : "newobj",
									"numinlets" : 2,
									"numoutlets" : 1,
									"outlettype" : [ "float" ],
									"patching_rect" : [ 448.0, 141.0, 41.0, 20.0 ],
									"text" : "/ 255."
								}

							}
, 							{
								"box" : 								{
									"comment" : "",
									"id" : "obj-2",
									"maxclass" : "inlet",
									"numinlets" : 0,
									"numoutlets" : 1,
									"outlettype" : [ "" ],
									"patching_rect" : [ 263.0, 14.0, 25.0, 25.0 ]
								}

							}
, 							{
								"box" : 								{
									"comment" : "",
									"id" : "obj-1",
									"maxclass" : "outlet",
									"numinlets" : 1,
									"numoutlets" : 0,
									"patching_rect" : [ 21.0, 349.0, 25.0, 25.0 ]
								}

							}
, 							{
								"box" : 								{
									"fontname" : "Arial",
									"fontsize" : 9.0,
									"id" : "obj-21",
									"maxclass" : "newobj",
									"numinlets" : 1,
									"numoutlets" : 2,
									"outlettype" : [ "jit_matrix", "" ],
									"patching_rect" : [ 266.0, 90.0, 65.0, 17.0 ],
									"text" : "jit.rgb2luma"
								}

							}
, 							{
								"box" : 								{
									"fontname" : "Arial",
									"fontsize" : 9.0,
									"id" : "obj-35",
									"maxclass" : "newobj",
									"numinlets" : 2,
									"numoutlets" : 1,
									"outlettype" : [ "float" ],
									"patching_rect" : [ 308.0, 163.0, 39.0, 17.0 ],
									"text" : "/ 255."
								}

							}
, 							{
								"box" : 								{
									"fontname" : "Arial",
									"fontsize" : 9.0,
									"id" : "obj-36",
									"maxclass" : "newobj",
									"numinlets" : 2,
									"numoutlets" : 1,
									"outlettype" : [ "float" ],
									"patching_rect" : [ 266.0, 163.0, 39.0, 17.0 ],
									"text" : "/ 255."
								}

							}
, 							{
								"box" : 								{
									"fontname" : "Arial",
									"fontsize" : 9.0,
									"id" : "obj-37",
									"maxclass" : "newobj",
									"numinlets" : 1,
									"numoutlets" : 1,
									"outlettype" : [ "bang" ],
									"patching_rect" : [ 224.0, 165.0, 20.0, 17.0 ],
									"text" : "t b"
								}

							}
, 							{
								"box" : 								{
									"fontname" : "Arial",
									"fontsize" : 9.0,
									"id" : "obj-38",
									"maxclass" : "newobj",
									"numinlets" : 5,
									"numoutlets" : 1,
									"outlettype" : [ "" ],
									"patching_rect" : [ 224.0, 186.0, 180.0, 17.0 ],
									"text" : "pack map 0. 0. 0. 0.2"
								}

							}
, 							{
								"box" : 								{
									"fontname" : "Arial",
									"fontsize" : 9.0,
									"id" : "obj-39",
									"maxclass" : "newobj",
									"numinlets" : 1,
									"numoutlets" : 2,
									"outlettype" : [ "jit_matrix", "" ],
									"patching_rect" : [ 105.0, 217.0, 41.0, 17.0 ],
									"text" : "jit.map"
								}

							}
, 							{
								"box" : 								{
									"fontname" : "Arial",
									"fontsize" : 9.0,
									"id" : "obj-40",
									"maxclass" : "newobj",
									"numinlets" : 1,
									"numoutlets" : 2,
									"outlettype" : [ "jit_matrix", "" ],
									"patching_rect" : [ 22.0, 268.0, 219.0, 17.0 ],
									"text" : "jit.matrix 1 char 320 240 @interp 1 @adapt 0"
								}

							}
, 							{
								"box" : 								{
									"fontname" : "Arial",
									"fontsize" : 9.0,
									"id" : "obj-41",
									"maxclass" : "newobj",
									"numinlets" : 1,
									"numoutlets" : 2,
									"outlettype" : [ "jit_matrix", "" ],
									"patching_rect" : [ 266.0, 116.0, 160.0, 17.0 ],
									"text" : "jit.matrix 1 char 20 20 @adapt 0"
								}

							}
, 							{
								"box" : 								{
									"fontname" : "Arial",
									"fontsize" : 9.0,
									"id" : "obj-42",
									"maxclass" : "newobj",
									"numinlets" : 1,
									"numoutlets" : 4,
									"outlettype" : [ "", "", "", "" ],
									"patching_rect" : [ 266.0, 141.0, 74.0, 17.0 ],
									"text" : "jit.3m"
								}

							}
 ],
						"lines" : [ 							{
								"patchline" : 								{
									"destination" : [ "obj-40", 0 ],
									"disabled" : 0,
									"hidden" : 0,
									"source" : [ "obj-10", 0 ]
								}

							}
, 							{
								"patchline" : 								{
									"destination" : [ "obj-21", 0 ],
									"disabled" : 0,
									"hidden" : 0,
									"source" : [ "obj-2", 0 ]
								}

							}
, 							{
								"patchline" : 								{
									"destination" : [ "obj-3", 0 ],
									"disabled" : 0,
									"hidden" : 0,
									"source" : [ "obj-2", 0 ]
								}

							}
, 							{
								"patchline" : 								{
									"destination" : [ "obj-41", 0 ],
									"disabled" : 0,
									"hidden" : 0,
									"source" : [ "obj-21", 0 ]
								}

							}
, 							{
								"patchline" : 								{
									"destination" : [ "obj-4", 0 ],
									"disabled" : 0,
									"hidden" : 0,
									"source" : [ "obj-3", 0 ]
								}

							}
, 							{
								"patchline" : 								{
									"destination" : [ "obj-38", 2 ],
									"disabled" : 0,
									"hidden" : 0,
									"source" : [ "obj-35", 0 ]
								}

							}
, 							{
								"patchline" : 								{
									"destination" : [ "obj-38", 1 ],
									"disabled" : 0,
									"hidden" : 0,
									"source" : [ "obj-36", 0 ]
								}

							}
, 							{
								"patchline" : 								{
									"destination" : [ "obj-38", 0 ],
									"disabled" : 0,
									"hidden" : 0,
									"source" : [ "obj-37", 0 ]
								}

							}
, 							{
								"patchline" : 								{
									"destination" : [ "obj-39", 0 ],
									"disabled" : 0,
									"hidden" : 0,
									"midpoints" : [ 233.5, 207.0, 114.5, 207.0 ],
									"source" : [ "obj-38", 0 ]
								}

							}
, 							{
								"patchline" : 								{
									"destination" : [ "obj-40", 0 ],
									"disabled" : 0,
									"hidden" : 0,
									"source" : [ "obj-39", 0 ]
								}

							}
, 							{
								"patchline" : 								{
									"destination" : [ "obj-6", 0 ],
									"disabled" : 0,
									"hidden" : 0,
									"source" : [ "obj-4", 0 ]
								}

							}
, 							{
								"patchline" : 								{
									"destination" : [ "obj-1", 0 ],
									"disabled" : 0,
									"hidden" : 0,
									"source" : [ "obj-40", 0 ]
								}

							}
, 							{
								"patchline" : 								{
									"destination" : [ "obj-39", 0 ],
									"disabled" : 0,
									"hidden" : 0,
									"midpoints" : [ 275.5, 136.0, 114.5, 136.0 ],
									"source" : [ "obj-41", 0 ]
								}

							}
, 							{
								"patchline" : 								{
									"destination" : [ "obj-42", 0 ],
									"disabled" : 0,
									"hidden" : 0,
									"source" : [ "obj-41", 0 ]
								}

							}
, 							{
								"patchline" : 								{
									"destination" : [ "obj-35", 0 ],
									"disabled" : 0,
									"hidden" : 0,
									"source" : [ "obj-42", 2 ]
								}

							}
, 							{
								"patchline" : 								{
									"destination" : [ "obj-36", 0 ],
									"disabled" : 0,
									"hidden" : 0,
									"source" : [ "obj-42", 0 ]
								}

							}
, 							{
								"patchline" : 								{
									"destination" : [ "obj-37", 0 ],
									"disabled" : 0,
									"hidden" : 0,
									"source" : [ "obj-42", 0 ]
								}

							}
, 							{
								"patchline" : 								{
									"destination" : [ "obj-38", 4 ],
									"disabled" : 0,
									"hidden" : 0,
									"source" : [ "obj-5", 0 ]
								}

							}
, 							{
								"patchline" : 								{
									"destination" : [ "obj-10", 0 ],
									"disabled" : 0,
									"hidden" : 0,
									"source" : [ "obj-6", 0 ]
								}

							}
, 							{
								"patchline" : 								{
									"destination" : [ "obj-5", 0 ],
									"disabled" : 0,
									"hidden" : 0,
									"source" : [ "obj-7", 0 ]
								}

							}
 ]
					}
,
					"patching_rect" : [ 169.0, 201.0, 122.0, 24.0 ],
					"saved_object_attributes" : 					{
						"default_fontface" : 0,
						"default_fontname" : "Arial",
						"default_fontsize" : 12.0,
						"description" : "",
						"digest" : "",
						"fontface" : 0,
						"fontname" : "Arial",
						"fontsize" : 12.0,
						"globalpatchername" : "",
						"tags" : ""
					}
,
					"text" : "p external_map"
				}

			}
, 			{
				"box" : 				{
					"id" : "obj-3",
					"maxclass" : "bpatcher",
					"name" : "slitscan%.module.maxpat",
					"numinlets" : 2,
					"numoutlets" : 2,
					"outlettype" : [ "", "" ],
					"patching_rect" : [ 38.0, 237.0, 150.0, 70.0 ],
					"presentation_rect" : [ 0.0, 0.0, 150.0, 70.0 ]
				}

			}
, 			{
				"box" : 				{
					"id" : "obj-1",
					"maxclass" : "bpatcher",
					"name" : "input%.module.maxpat",
					"numinlets" : 1,
					"numoutlets" : 2,
					"outlettype" : [ "", "" ],
					"patching_rect" : [ 38.0, 108.0, 300.0, 70.0 ],
					"presentation_rect" : [ 0.0, 0.0, 300.0, 70.0 ]
				}

			}
, 			{
				"box" : 				{
					"args" : [ "@name", "slitscan%", "@description", "Slit-scanning effect based on xray.jit.timecube" ],
					"bgmode" : 1,
					"id" : "obj-21",
					"maxclass" : "bpatcher",
					"name" : "j.maxhelpui.maxpat",
					"numinlets" : 1,
					"numoutlets" : 0,
					"patching_rect" : [ 0.0, 0.0, 700.0, 70.0 ]
				}

			}
 ],
		"lines" : [ 			{
				"patchline" : 				{
					"destination" : [ "obj-3", 0 ],
					"disabled" : 0,
					"hidden" : 0,
					"midpoints" : [ 47.5, 191.0, 47.5, 191.0 ],
					"source" : [ "obj-1", 0 ]
				}

			}
, 			{
				"patchline" : 				{
					"destination" : [ "obj-6", 0 ],
					"disabled" : 0,
					"hidden" : 0,
					"source" : [ "obj-1", 0 ]
				}

			}
, 			{
				"patchline" : 				{
					"destination" : [ "obj-29", 0 ],
					"disabled" : 0,
					"hidden" : 1,
					"source" : [ "obj-28", 0 ]
				}

			}
, 			{
				"patchline" : 				{
					"destination" : [ "obj-5", 0 ],
					"disabled" : 0,
					"hidden" : 0,
					"midpoints" : [ 47.5, 322.0, 23.0, 322.0, 23.0, 89.0, 363.5, 89.0 ],
					"source" : [ "obj-3", 0 ]
				}

			}
, 			{
				"patchline" : 				{
					"destination" : [ "obj-3", 1 ],
					"disabled" : 0,
					"hidden" : 0,
					"source" : [ "obj-6", 0 ]
				}

			}
 ],
		"dependency_cache" : [ 			{
				"name" : "j.maxhelpui.maxpat",
				"bootpath" : "/Users/reno/Documents/GITs/Jamoma/Implementations/Max/Jamoma/patchers/components/data/maxhelpui",
				"patcherrelativepath" : "../../../../components/data/maxhelpui",
				"type" : "JSON",
				"implicit" : 1
			}
, 			{
				"name" : "j.maxhelpuiButton.png",
				"bootpath" : "/Users/reno/Documents/GITs/Jamoma/Implementations/Max/Jamoma/patchers/components/data/maxhelpui",
				"patcherrelativepath" : "../../../../components/data/maxhelpui",
				"type" : "PNG ",
				"implicit" : 1
			}
, 			{
				"name" : "j.maxhelpuiResize.js",
				"bootpath" : "/Users/reno/Documents/GITs/Jamoma/Implementations/Max/Jamoma/patchers/components/data/maxhelpui",
				"patcherrelativepath" : "../../../../components/data/maxhelpui",
				"type" : "TEXT",
				"implicit" : 1
			}
, 			{
				"name" : "j.jamomaPath.maxpat",
				"bootpath" : "/Users/reno/Documents/GITs/Jamoma/Implementations/Max/Jamoma/patchers/components/data/jamomaPath",
				"patcherrelativepath" : "../../../../components/data/jamomaPath",
				"type" : "JSON",
				"implicit" : 1
			}
, 			{
				"name" : "input%.module.maxpat",
				"bootpath" : "/Users/reno/Documents/GITs/Jamoma/Implementations/Max/Jamoma/patchers/modules/video/sources/input%",
				"patcherrelativepath" : "../../sources/input%",
				"type" : "JSON",
				"implicit" : 1
			}
, 			{
				"name" : "input%.model.maxpat",
				"bootpath" : "/Users/reno/Documents/GITs/Jamoma/Implementations/Max/Jamoma/patchers/modules/video/sources/input%",
				"patcherrelativepath" : "../../sources/input%",
				"type" : "TEXT",
				"implicit" : 1
			}
, 			{
				"name" : "noise%.model.maxpat",
				"bootpath" : "/Users/reno/Documents/GITs/Jamoma/Implementations/Max/Jamoma/patchers/modules/video/sources/noise%",
				"patcherrelativepath" : "../../sources/noise%",
				"type" : "JSON",
				"implicit" : 1
			}
, 			{
				"name" : "movie%.model.maxpat",
				"bootpath" : "/Users/reno/Documents/GITs/Jamoma/Implementations/Max/Jamoma/patchers/modules/video/sources/movie%",
				"patcherrelativepath" : "../../sources/movie%",
				"type" : "TEXT",
				"implicit" : 1
			}
, 			{
				"name" : "grab%.model.maxpat",
				"bootpath" : "/Users/reno/Documents/GITs/Jamoma/Implementations/Max/Jamoma/patchers/modules/video/sources/grab%",
				"patcherrelativepath" : "../../sources/grab%",
				"type" : "JSON",
				"implicit" : 1
			}
, 			{
				"name" : "input%.view.maxpat",
				"bootpath" : "/Users/reno/Documents/GITs/Jamoma/Implementations/Max/Jamoma/patchers/modules/video/sources/input%",
				"patcherrelativepath" : "../../sources/input%",
				"type" : "JSON",
				"implicit" : 1
			}
, 			{
				"name" : "input%.ui.maxpat",
				"bootpath" : "/Users/reno/Documents/GITs/Jamoma/Implementations/Max/Jamoma/patchers/modules/video/sources/input%",
				"patcherrelativepath" : "../../sources/input%",
				"type" : "JSON",
				"implicit" : 1
			}
, 			{
				"name" : "j.list2parameter.maxpat",
				"bootpath" : "/Users/reno/Documents/GITs/Jamoma/Implementations/Max/Jamoma/patchers/components/data/list2parameter",
				"patcherrelativepath" : "../../../../components/data/list2parameter",
				"type" : "JSON",
				"implicit" : 1
			}
, 			{
				"name" : "slitscan%.module.maxpat",
				"bootpath" : "/Users/reno/Documents/GITs/Jamoma/Implementations/Max/Jamoma/patchers/modules/video/fx/slitscan%",
				"patcherrelativepath" : ".",
				"type" : "JSON",
				"implicit" : 1
			}
, 			{
				"name" : "slitscan%.model.maxpat",
				"bootpath" : "/Users/reno/Documents/GITs/Jamoma/Implementations/Max/Jamoma/patchers/modules/video/fx/slitscan%",
				"patcherrelativepath" : ".",
				"type" : "JSON",
				"implicit" : 1
			}
, 			{
				"name" : "slitscan%.view.maxpat",
				"bootpath" : "/Users/reno/Documents/GITs/Jamoma/Implementations/Max/Jamoma/patchers/modules/video/fx/slitscan%",
				"patcherrelativepath" : ".",
				"type" : "JSON",
				"implicit" : 1
			}
, 			{
				"name" : "j.receive.mxo",
				"type" : "iLaX"
			}
, 			{
				"name" : "j.send.mxo",
				"type" : "iLaX"
			}
, 			{
				"name" : "j.savebang.mxo",
				"type" : "iLaX"
			}
, 			{
				"name" : "j.parameter.mxo",
				"type" : "iLaX"
			}
, 			{
				"name" : "j.in.mxo",
				"type" : "iLaX"
			}
, 			{
				"name" : "j.out.mxo",
				"type" : "iLaX"
			}
, 			{
				"name" : "j.model.mxo",
				"type" : "iLaX"
			}
, 			{
				"name" : "j.message.mxo",
				"type" : "iLaX"
			}
, 			{
				"name" : "j.return.mxo",
				"type" : "iLaX"
			}
, 			{
				"name" : "j.init.mxo",
				"type" : "iLaX"
			}
, 			{
				"name" : "j.ui.mxo",
				"type" : "iLaX"
			}
, 			{
				"name" : "j.remote.mxo",
				"type" : "iLaX"
			}
, 			{
				"name" : "j.view.mxo",
				"type" : "iLaX"
			}
, 			{
				"name" : "xray.jit.timecube.mxo",
				"type" : "iLaX"
			}
 ]
	}

}
