{
	"patcher" : 	{
		"fileversion" : 1,
		"appversion" : 		{
			"major" : 6,
			"minor" : 1,
			"revision" : 7,
			"architecture" : "x86"
		}
,
		"rect" : [ 542.0, 75.0, 418.0, 279.0 ],
		"bglocked" : 0,
		"openinpresentation" : 1,
		"default_fontsize" : 10.0,
		"default_fontface" : 0,
		"default_fontname" : "Verdana",
		"gridonopen" : 0,
		"gridsize" : [ 5.0, 5.0 ],
		"gridsnaponopen" : 0,
		"statusbarvisible" : 2,
		"toolbarvisible" : 1,
		"boxanimatetime" : 200,
		"imprint" : 0,
		"enablehscroll" : 1,
		"enablevscroll" : 1,
		"devicewidth" : 0.0,
		"description" : "",
		"digest" : "",
		"tags" : "",
		"boxes" : [ 			{
				"box" : 				{
					"color" : [ 0.619608, 0.0, 0.360784, 0.698039 ],
					"fontname" : "Verdana",
					"fontsize" : 10.0,
					"id" : "obj-1",
					"maxclass" : "newobj",
					"numinlets" : 11,
					"numoutlets" : 11,
					"outlettype" : [ "", "", "", "", "", "", "", "", "", "", "" ],
					"patching_rect" : [ 158.0, 142.5, 103.0, 19.0 ],
					"presentation_rect" : [ 158.0, 142.5, 0.0, 0.0 ],
					"text" : "j.list2parameter 2"
				}

			}
, 			{
				"box" : 				{
					"fontname" : "Arial",
					"fontsize" : 12.0,
					"frgb" : 0.0,
					"id" : "obj-2",
					"maxclass" : "comment",
					"numinlets" : 1,
					"numoutlets" : 0,
					"patching_rect" : [ 360.0, 140.5, 52.0, 20.0 ],
					"presentation" : 1,
					"presentation_rect" : [ 147.979446, 47.0, 52.0, 20.0 ],
					"text" : "position"
				}

			}
, 			{
				"box" : 				{
					"annotation" : "none",
					"bordercolor" : [ 0.086275, 0.086275, 0.086275, 1.0 ],
					"fontname" : "Arial",
					"fontsize" : 11.0,
					"id" : "obj-3",
					"maxclass" : "number",
					"minimum" : 0,
					"numinlets" : 1,
					"numoutlets" : 2,
					"outlettype" : [ "int", "bang" ],
					"parameter_enable" : 0,
					"patching_rect" : [ 219.0, 102.0, 53.0, 19.0 ],
					"presentation" : 1,
					"presentation_rect" : [ 249.0, 47.0, 46.0, 19.0 ],
					"triangle" : 0
				}

			}
, 			{
				"box" : 				{
					"fontname" : "Arial",
					"fontsize" : 12.0,
					"id" : "obj-5",
					"maxclass" : "newobj",
					"numinlets" : 1,
					"numoutlets" : 4,
					"outlettype" : [ "", "", "", "" ],
					"patching_rect" : [ 261.0, 140.5, 99.0, 20.0 ],
					"text" : "j.remote position"
				}

			}
, 			{
				"box" : 				{
					"annotation" : "none",
					"bordercolor" : [ 0.086275, 0.086275, 0.086275, 1.0 ],
					"fontname" : "Arial",
					"fontsize" : 11.0,
					"id" : "obj-10",
					"maxclass" : "number",
					"minimum" : 0,
					"numinlets" : 1,
					"numoutlets" : 2,
					"outlettype" : [ "int", "bang" ],
					"parameter_enable" : 0,
					"patching_rect" : [ 158.0, 102.0, 53.0, 19.0 ],
					"presentation" : 1,
					"presentation_rect" : [ 199.979446, 47.0, 46.0, 19.0 ],
					"triangle" : 0
				}

			}
, 			{
				"box" : 				{
					"color" : [ 0.619608, 0.0, 0.360784, 0.698039 ],
					"fontname" : "Verdana",
					"fontsize" : 10.0,
					"id" : "obj-4",
					"maxclass" : "newobj",
					"numinlets" : 11,
					"numoutlets" : 11,
					"outlettype" : [ "", "", "", "", "", "", "", "", "", "", "" ],
					"patching_rect" : [ 158.0, 224.5, 103.0, 19.0 ],
					"text" : "j.list2parameter 2"
				}

			}
, 			{
				"box" : 				{
					"fontname" : "Arial",
					"fontsize" : 12.0,
					"frgb" : 0.0,
					"id" : "obj-52",
					"maxclass" : "comment",
					"numinlets" : 1,
					"numoutlets" : 0,
					"patching_rect" : [ 343.999939, 222.5, 30.0, 20.0 ],
					"presentation" : 1,
					"presentation_rect" : [ 167.979446, 25.0, 30.0, 20.0 ],
					"text" : "size"
				}

			}
, 			{
				"box" : 				{
					"annotation" : "none",
					"bordercolor" : [ 0.086275, 0.086275, 0.086275, 1.0 ],
					"fontname" : "Arial",
					"fontsize" : 11.0,
					"id" : "obj-11",
					"maxclass" : "number",
					"minimum" : 0,
					"numinlets" : 1,
					"numoutlets" : 2,
					"outlettype" : [ "int", "bang" ],
					"parameter_enable" : 0,
					"patching_rect" : [ 219.0, 184.0, 53.0, 19.0 ],
					"presentation" : 1,
					"presentation_rect" : [ 249.0, 25.0, 46.0, 19.0 ],
					"triangle" : 0
				}

			}
, 			{
				"box" : 				{
					"fontname" : "Arial",
					"fontsize" : 12.0,
					"id" : "obj-12",
					"maxclass" : "newobj",
					"numinlets" : 1,
					"numoutlets" : 4,
					"outlettype" : [ "", "", "", "" ],
					"patching_rect" : [ 261.0, 222.5, 77.0, 20.0 ],
					"text" : "j.remote size"
				}

			}
, 			{
				"box" : 				{
					"annotation" : "none",
					"bordercolor" : [ 0.086275, 0.086275, 0.086275, 1.0 ],
					"fontname" : "Arial",
					"fontsize" : 11.0,
					"id" : "obj-62",
					"maxclass" : "number",
					"minimum" : 0,
					"numinlets" : 1,
					"numoutlets" : 2,
					"outlettype" : [ "int", "bang" ],
					"parameter_enable" : 0,
					"patching_rect" : [ 158.0, 184.0, 53.0, 19.0 ],
					"presentation" : 1,
					"presentation_rect" : [ 198.979446, 25.0, 46.0, 19.0 ],
					"triangle" : 0
				}

			}
, 			{
				"box" : 				{
					"border" : 1,
					"fontname" : "Verdana",
					"fontsize" : 10.0,
					"id" : "obj-8",
					"maxclass" : "textbutton",
					"mode" : 1,
					"numinlets" : 1,
					"numoutlets" : 3,
					"outlettype" : [ "", "", "int" ],
					"parameter_enable" : 0,
					"patching_rect" : [ 34.0, 184.0, 68.466904, 17.933016 ],
					"presentation" : 1,
					"presentation_rect" : [ 5.394554, 47.0, 68.84684, 16.0 ],
					"prototypename" : "jamoma on off",
					"rounded" : 8.0,
					"text" : "interpolate",
					"texton" : "interpolate",
					"varname" : "interpolate"
				}

			}
, 			{
				"box" : 				{
					"border" : 1,
					"fontname" : "Verdana",
					"fontsize" : 10.0,
					"id" : "obj-6",
					"maxclass" : "textbutton",
					"mode" : 1,
					"numinlets" : 1,
					"numoutlets" : 3,
					"outlettype" : [ "", "", "int" ],
					"parameter_enable" : 0,
					"patching_rect" : [ 30.0, 102.0, 68.287193, 19.000002 ],
					"presentation" : 1,
					"presentation_rect" : [ 5.394554, 25.0, 64.251328, 16.0 ],
					"prototypename" : "jamoma settings",
					"rounded" : 8.0,
					"text" : "fullscreen",
					"texton" : "fullscreen",
					"varname" : "fullscreen"
				}

			}
, 			{
				"box" : 				{
					"fontname" : "Verdana",
					"fontsize" : 10.0,
					"id" : "obj-7",
					"linecount" : 2,
					"maxclass" : "newobj",
					"numinlets" : 1,
					"numoutlets" : 4,
					"outlettype" : [ "", "", "", "" ],
					"patching_rect" : [ 31.0, 209.0, 107.0, 31.0 ],
					"text" : "j.remote interpolate",
					"varname" : "interpolate[1]"
				}

			}
, 			{
				"box" : 				{
					"fontname" : "Verdana",
					"fontsize" : 10.0,
					"id" : "obj-9",
					"linecount" : 2,
					"maxclass" : "newobj",
					"numinlets" : 1,
					"numoutlets" : 4,
					"outlettype" : [ "", "", "", "" ],
					"patching_rect" : [ 30.0, 129.0, 102.0, 31.0 ],
					"text" : "j.remote fullscreen",
					"varname" : "fullscreen[1]"
				}

			}
, 			{
				"box" : 				{
					"fontname" : "Verdana",
					"fontsize" : 10.0,
					"id" : "obj-16",
					"maxclass" : "newobj",
					"numinlets" : 1,
					"numoutlets" : 2,
					"outlettype" : [ "", "" ],
					"patching_rect" : [ 314.0, 35.0, 40.0, 19.0 ],
					"text" : "j.view",
					"varname" : "j.model"
				}

			}
, 			{
				"box" : 				{
					"id" : "obj-34",
					"maxclass" : "j.ui",
					"numinlets" : 1,
					"numoutlets" : 1,
					"outlettype" : [ "" ],
					"presentation" : 1,
					"presentation_rect" : [ 0.0, 0.0, 300.0, 70.0 ],
					"text" : "/no_..ess"
				}

			}
 ],
		"lines" : [ 			{
				"patchline" : 				{
					"destination" : [ "obj-10", 0 ],
					"disabled" : 0,
					"hidden" : 0,
					"source" : [ "obj-1", 0 ]
				}

			}
, 			{
				"patchline" : 				{
					"destination" : [ "obj-3", 0 ],
					"disabled" : 0,
					"hidden" : 0,
					"source" : [ "obj-1", 1 ]
				}

			}
, 			{
				"patchline" : 				{
					"destination" : [ "obj-5", 0 ],
					"disabled" : 0,
					"hidden" : 0,
					"source" : [ "obj-1", 10 ]
				}

			}
, 			{
				"patchline" : 				{
					"destination" : [ "obj-1", 0 ],
					"disabled" : 0,
					"hidden" : 0,
					"source" : [ "obj-10", 0 ]
				}

			}
, 			{
				"patchline" : 				{
					"destination" : [ "obj-4", 1 ],
					"disabled" : 0,
					"hidden" : 0,
					"source" : [ "obj-11", 0 ]
				}

			}
, 			{
				"patchline" : 				{
					"destination" : [ "obj-4", 10 ],
					"disabled" : 0,
					"hidden" : 0,
					"source" : [ "obj-12", 0 ]
				}

			}
, 			{
				"patchline" : 				{
					"destination" : [ "obj-1", 1 ],
					"disabled" : 0,
					"hidden" : 0,
					"source" : [ "obj-3", 0 ]
				}

			}
, 			{
				"patchline" : 				{
					"destination" : [ "obj-11", 0 ],
					"disabled" : 0,
					"hidden" : 0,
					"source" : [ "obj-4", 1 ]
				}

			}
, 			{
				"patchline" : 				{
					"destination" : [ "obj-12", 0 ],
					"disabled" : 0,
					"hidden" : 0,
					"source" : [ "obj-4", 10 ]
				}

			}
, 			{
				"patchline" : 				{
					"destination" : [ "obj-62", 0 ],
					"disabled" : 0,
					"hidden" : 0,
					"source" : [ "obj-4", 0 ]
				}

			}
, 			{
				"patchline" : 				{
					"destination" : [ "obj-1", 10 ],
					"disabled" : 0,
					"hidden" : 0,
					"source" : [ "obj-5", 0 ]
				}

			}
, 			{
				"patchline" : 				{
					"destination" : [ "obj-9", 0 ],
					"disabled" : 0,
					"hidden" : 0,
					"source" : [ "obj-6", 0 ]
				}

			}
, 			{
				"patchline" : 				{
					"destination" : [ "obj-4", 0 ],
					"disabled" : 0,
					"hidden" : 0,
					"source" : [ "obj-62", 0 ]
				}

			}
, 			{
				"patchline" : 				{
					"destination" : [ "obj-8", 0 ],
					"disabled" : 0,
					"hidden" : 0,
					"midpoints" : [ 40.5, 249.0, 21.0, 249.0, 21.0, 178.0, 43.5, 178.0 ],
					"source" : [ "obj-7", 0 ]
				}

			}
, 			{
				"patchline" : 				{
					"destination" : [ "obj-7", 0 ],
					"disabled" : 0,
					"hidden" : 0,
					"source" : [ "obj-8", 0 ]
				}

			}
, 			{
				"patchline" : 				{
					"destination" : [ "obj-6", 0 ],
					"disabled" : 0,
					"hidden" : 0,
					"midpoints" : [ 39.5, 169.0, 16.0, 169.0, 16.0, 82.0, 39.5, 82.0 ],
					"source" : [ "obj-9", 0 ]
				}

			}
 ],
		"dependency_cache" : [ 			{
				"name" : "j.list2parameter.maxpat",
				"bootpath" : "/Users/reno/Documents/GITs/Jamoma/Implementations/Max/Jamoma/patchers/components/data/list2parameter",
				"patcherrelativepath" : "../../../../components/data/list2parameter",
				"type" : "JSON",
				"implicit" : 1
			}
, 			{
				"name" : "j.ui.mxo",
				"type" : "iLaX"
			}
, 			{
				"name" : "j.view.mxo",
				"type" : "iLaX"
			}
, 			{
				"name" : "j.remote.mxo",
				"type" : "iLaX"
			}
 ]
	}

}
