max v2;#N vpatcher 304 89 735 454;#P origin -22 0;#P window setfont "Sans Serif" 9.;#P window linecount 1;#P newex 171 101 37 196617 t open;#P newex 203 143 32 196617 sel 1;#P toggle 244 99 15 0;#P newex 244 122 29 196617 gate;#P outlet 20 326 15 0;#P newex 20 271 70 196617 speedlim 500;#P newex 142 300 103 196617 print Text-message:;#P inlet 380 31 15 0;#P newex 42 63 121 196617 jcom.pass /clear /write;#P newex 219 191 27 196617 i;#P newex 219 239 53 196617 append cr;#P newex 219 215 52 196617 zl join;#P newex 244 143 27 196617 t b l;#P newex 219 169 35 196617 timer;#P newex 112 271 40 196617 text;#P newex 171 63 156 196617 jcom.oscroute /open_buffer /on;#P inlet 42 31 15 0;#P connect 7 0 11 0;#P lcolor 5;#P connect 11 0 12 0;#P connect 0 0 8 0;#P fasten 16 0 2 0 176 194 117 194;#P fasten 8 0 2 0 47 175 117 175;#P fasten 8 1 2 0 102 175 117 175;#P fasten 6 0 2 0 224 263 117 263;#P connect 2 2 10 0;#P connect 8 2 1 0;#P connect 1 0 16 0;#P connect 1 1 15 0;#P fasten 15 0 3 0 208 164 224 164;#P connect 3 0 7 0;#P connect 7 0 5 0;#P connect 5 0 6 0;#P connect 1 1 14 0;#P connect 14 0 13 0;#P connect 13 0 4 0;#P connect 4 0 3 1;#P connect 4 1 5 1;#P fasten 9 0 13 1 385 114 268 114;#P pop;