{
	"patcher" : 	{
		"fileversion" : 1,
		"rect" : [ 513.0, 247.0, 455.0, 250.0 ],
		"bglocked" : 0,
		"defrect" : [ 513.0, 247.0, 455.0, 250.0 ],
		"openrect" : [ 0.0, 0.0, 0.0, 0.0 ],
		"openinpresentation" : 0,
		"default_fontsize" : 10.0,
		"default_fontface" : 0,
		"default_fontname" : "Verdana",
		"gridonopen" : 0,
		"gridsize" : [ 5.0, 5.0 ],
		"gridsnaponopen" : 0,
		"toolbarvisible" : 1,
		"boxanimatetime" : 200,
		"imprint" : 0,
		"metadata" : [  ],
		"boxes" : [ 			{
				"box" : 				{
					"maxclass" : "newobj",
					"text" : "qlim",
					"fontsize" : 10.0,
					"numinlets" : 2,
					"patching_rect" : [ 65.0, 85.0, 32.5, 19.0 ],
					"id" : "obj-6",
					"fontname" : "Verdana",
					"numoutlets" : 1,
					"outlettype" : [ "" ]
				}

			}
, 			{
				"box" : 				{
					"maxclass" : "newobj",
					"text" : "qlim",
					"fontsize" : 10.0,
					"numinlets" : 2,
					"patching_rect" : [ 65.0, 60.0, 32.5, 19.0 ],
					"id" : "obj-4",
					"fontname" : "Verdana",
					"numoutlets" : 1,
					"outlettype" : [ "" ]
				}

			}
, 			{
				"box" : 				{
					"maxclass" : "outlet",
					"numinlets" : 1,
					"patching_rect" : [ 65.0, 145.0, 20.0, 20.0 ],
					"id" : "obj-1",
					"numoutlets" : 0,
					"comment" : ""
				}

			}
, 			{
				"box" : 				{
					"maxclass" : "message",
					"text" : "wclose",
					"fontsize" : 10.0,
					"numinlets" : 2,
					"patching_rect" : [ 65.0, 120.0, 44.0, 17.0 ],
					"id" : "obj-5",
					"fontname" : "Verdana",
					"numoutlets" : 1,
					"outlettype" : [ "" ]
				}

			}
, 			{
				"box" : 				{
					"maxclass" : "inlet",
					"numinlets" : 0,
					"patching_rect" : [ 145.0, 20.0, 20.0, 20.0 ],
					"id" : "obj-3",
					"numoutlets" : 1,
					"outlettype" : [ "" ],
					"comment" : ""
				}

			}
, 			{
				"box" : 				{
					"maxclass" : "button",
					"numinlets" : 1,
					"patching_rect" : [ 145.0, 50.0, 20.0, 20.0 ],
					"id" : "obj-2",
					"numoutlets" : 1,
					"outlettype" : [ "bang" ]
				}

			}
, 			{
				"box" : 				{
					"maxclass" : "newobj",
					"text" : "s TestFinished",
					"fontsize" : 10.0,
					"numinlets" : 1,
					"patching_rect" : [ 145.0, 110.0, 81.0, 19.0 ],
					"id" : "obj-17",
					"fontname" : "Verdana",
					"numoutlets" : 0
				}

			}
 ],
		"lines" : [ 			{
				"patchline" : 				{
					"source" : [ "obj-2", 0 ],
					"destination" : [ "obj-17", 0 ],
					"hidden" : 0,
					"midpoints" : [  ]
				}

			}
, 			{
				"patchline" : 				{
					"source" : [ "obj-2", 0 ],
					"destination" : [ "obj-4", 0 ],
					"hidden" : 0,
					"midpoints" : [  ]
				}

			}
, 			{
				"patchline" : 				{
					"source" : [ "obj-3", 0 ],
					"destination" : [ "obj-2", 0 ],
					"hidden" : 0,
					"midpoints" : [  ]
				}

			}
, 			{
				"patchline" : 				{
					"source" : [ "obj-5", 0 ],
					"destination" : [ "obj-1", 0 ],
					"hidden" : 0,
					"midpoints" : [  ]
				}

			}
, 			{
				"patchline" : 				{
					"source" : [ "obj-4", 0 ],
					"destination" : [ "obj-6", 0 ],
					"hidden" : 0,
					"midpoints" : [  ]
				}

			}
, 			{
				"patchline" : 				{
					"source" : [ "obj-6", 0 ],
					"destination" : [ "obj-5", 0 ],
					"hidden" : 0,
					"midpoints" : [  ]
				}

			}
 ]
	}

}
