{
	"patcher" : 	{
		"fileversion" : 1,
		"rect" : [ 59.0, 79.0, 650.0, 288.0 ],
		"bglocked" : 0,
		"defrect" : [ 59.0, 79.0, 650.0, 288.0 ],
		"openrect" : [ 0.0, 0.0, 0.0, 0.0 ],
		"openinpresentation" : 0,
		"default_fontsize" : 10.0,
		"default_fontface" : 0,
		"default_fontname" : "Verdana",
		"gridonopen" : 0,
		"gridsize" : [ 5.0, 5.0 ],
		"gridsnaponopen" : 0,
		"toolbarvisible" : 1,
		"boxanimatetime" : 200,
		"imprint" : 0,
		"metadata" : [  ],
		"boxes" : [ 			{
				"box" : 				{
					"maxclass" : "message",
					"text" : "anything $1",
					"id" : "obj-14",
					"fontname" : "Verdana",
					"numinlets" : 2,
					"numoutlets" : 1,
					"patching_rect" : [ 275.0, 115.0, 80.0, 17.0 ],
					"fontsize" : 10.0,
					"outlettype" : [ "" ]
				}

			}
, 			{
				"box" : 				{
					"maxclass" : "message",
					"text" : "something $1",
					"id" : "obj-13",
					"fontname" : "Verdana",
					"numinlets" : 2,
					"numoutlets" : 1,
					"patching_rect" : [ 190.0, 115.0, 79.0, 17.0 ],
					"fontsize" : 10.0,
					"outlettype" : [ "" ]
				}

			}
, 			{
				"box" : 				{
					"maxclass" : "comment",
					"text" : "video input",
					"frgb" : [ 0.0, 0.0, 0.0, 1.0 ],
					"id" : "obj-1",
					"fontname" : "Verdana",
					"numinlets" : 1,
					"numoutlets" : 0,
					"patching_rect" : [ 525.0, 30.0, 68.0, 19.0 ],
					"fontsize" : 10.0
				}

			}
, 			{
				"box" : 				{
					"maxclass" : "comment",
					"text" : "osc messages from algorithm",
					"frgb" : [ 0.0, 0.0, 0.0, 1.0 ],
					"id" : "obj-2",
					"fontname" : "Verdana",
					"numinlets" : 1,
					"numoutlets" : 0,
					"patching_rect" : [ 60.0, 210.0, 160.0, 19.0 ],
					"fontsize" : 10.0
				}

			}
, 			{
				"box" : 				{
					"maxclass" : "outlet",
					"id" : "obj-3",
					"numinlets" : 1,
					"numoutlets" : 0,
					"patching_rect" : [ 35.0, 210.0, 23.0, 23.0 ],
					"comment" : "osc messages from algorithm"
				}

			}
, 			{
				"box" : 				{
					"maxclass" : "newobj",
					"text" : "jit.hue",
					"id" : "obj-4",
					"fontname" : "Verdana",
					"numinlets" : 1,
					"numoutlets" : 2,
					"patching_rect" : [ 500.0, 180.0, 44.0, 19.0 ],
					"fontsize" : 10.0,
					"outlettype" : [ "jit_matrix", "" ]
				}

			}
, 			{
				"box" : 				{
					"maxclass" : "newobj",
					"text" : "jcom.oscroute /genframe /direct /this_parameter /this_message",
					"id" : "obj-5",
					"fontname" : "Verdana",
					"numinlets" : 1,
					"numoutlets" : 5,
					"patching_rect" : [ 35.0, 80.0, 337.0, 19.0 ],
					"fontsize" : 10.0,
					"outlettype" : [ "", "", "", "", "" ]
				}

			}
, 			{
				"box" : 				{
					"maxclass" : "inlet",
					"id" : "obj-6",
					"numinlets" : 0,
					"numoutlets" : 1,
					"patching_rect" : [ 500.0, 30.0, 23.0, 23.0 ],
					"outlettype" : [ "" ],
					"comment" : "video input"
				}

			}
, 			{
				"box" : 				{
					"maxclass" : "inlet",
					"id" : "obj-7",
					"numinlets" : 0,
					"numoutlets" : 1,
					"patching_rect" : [ 35.0, 30.0, 23.0, 23.0 ],
					"outlettype" : [ "" ],
					"comment" : "osc messages to algorithm"
				}

			}
, 			{
				"box" : 				{
					"maxclass" : "comment",
					"text" : "video output",
					"frgb" : [ 0.0, 0.0, 0.0, 1.0 ],
					"id" : "obj-8",
					"fontname" : "Verdana",
					"numinlets" : 1,
					"numoutlets" : 0,
					"patching_rect" : [ 525.0, 210.0, 75.0, 19.0 ],
					"fontsize" : 10.0
				}

			}
, 			{
				"box" : 				{
					"maxclass" : "outlet",
					"id" : "obj-9",
					"numinlets" : 1,
					"numoutlets" : 0,
					"patching_rect" : [ 500.0, 210.0, 23.0, 23.0 ],
					"comment" : "video output"
				}

			}
, 			{
				"box" : 				{
					"maxclass" : "newobj",
					"text" : "jcom.pass /hue_angle",
					"id" : "obj-10",
					"fontname" : "Verdana",
					"numinlets" : 1,
					"numoutlets" : 2,
					"patching_rect" : [ 365.0, 115.0, 123.0, 19.0 ],
					"fontsize" : 10.0,
					"outlettype" : [ "", "" ]
				}

			}
, 			{
				"box" : 				{
					"maxclass" : "comment",
					"text" : "osc messages to algorithm",
					"frgb" : [ 0.0, 0.0, 0.0, 1.0 ],
					"id" : "obj-11",
					"fontname" : "Verdana",
					"numinlets" : 1,
					"numoutlets" : 0,
					"patching_rect" : [ 60.0, 30.0, 146.0, 19.0 ],
					"fontsize" : 10.0
				}

			}
 ],
		"lines" : [ 			{
				"patchline" : 				{
					"source" : [ "obj-14", 0 ],
					"destination" : [ "obj-4", 0 ],
					"hidden" : 0,
					"midpoints" : [ 284.5, 168.0, 509.5, 168.0 ]
				}

			}
, 			{
				"patchline" : 				{
					"source" : [ "obj-5", 3 ],
					"destination" : [ "obj-14", 0 ],
					"hidden" : 0,
					"midpoints" : [  ]
				}

			}
, 			{
				"patchline" : 				{
					"source" : [ "obj-13", 0 ],
					"destination" : [ "obj-4", 0 ],
					"hidden" : 0,
					"midpoints" : [ 199.5, 168.0, 509.5, 168.0 ]
				}

			}
, 			{
				"patchline" : 				{
					"source" : [ "obj-5", 2 ],
					"destination" : [ "obj-13", 0 ],
					"hidden" : 0,
					"midpoints" : [  ]
				}

			}
, 			{
				"patchline" : 				{
					"source" : [ "obj-5", 4 ],
					"destination" : [ "obj-10", 0 ],
					"hidden" : 0,
					"midpoints" : [  ]
				}

			}
, 			{
				"patchline" : 				{
					"source" : [ "obj-7", 0 ],
					"destination" : [ "obj-5", 0 ],
					"hidden" : 0,
					"midpoints" : [  ]
				}

			}
, 			{
				"patchline" : 				{
					"source" : [ "obj-5", 0 ],
					"destination" : [ "obj-4", 0 ],
					"hidden" : 0,
					"midpoints" : [ 44.5, 168.0, 509.5, 168.0 ]
				}

			}
, 			{
				"patchline" : 				{
					"source" : [ "obj-5", 1 ],
					"destination" : [ "obj-4", 0 ],
					"hidden" : 0,
					"midpoints" : [ 124.0, 168.0, 509.5, 168.0 ]
				}

			}
, 			{
				"patchline" : 				{
					"source" : [ "obj-10", 0 ],
					"destination" : [ "obj-4", 0 ],
					"hidden" : 0,
					"midpoints" : [ 374.5, 168.0, 509.5, 168.0 ]
				}

			}
, 			{
				"patchline" : 				{
					"source" : [ "obj-6", 0 ],
					"destination" : [ "obj-4", 0 ],
					"hidden" : 0,
					"color" : [ 1.0, 0.890196, 0.090196, 1.0 ],
					"midpoints" : [  ]
				}

			}
, 			{
				"patchline" : 				{
					"source" : [ "obj-4", 0 ],
					"destination" : [ "obj-9", 0 ],
					"hidden" : 0,
					"midpoints" : [  ]
				}

			}
 ]
	}

}
