{
	"patcher" : 	{
		"rect" : [ 195.0, 107.0, 402.0, 338.0 ],
		"bglocked" : 0,
		"defrect" : [ 195.0, 107.0, 402.0, 338.0 ],
		"openinpresentation" : 0,
		"default_fontsize" : 10.0,
		"default_fontface" : 0,
		"default_fontname" : "Verdana",
		"gridonopen" : 0,
		"gridsize" : [ 5.0, 5.0 ],
		"gridsnaponopen" : 0,
		"toolbarvisible" : 1,
		"boxfadetime" : 200,
		"boxanimatetime" : 200,
		"scrollanimatetime" : 200,
		"metadata" : [  ],
		"boxes" : [ 			{
				"box" : 				{
					"maxclass" : "flonum",
					"outlettype" : [ "float", "bang" ],
					"id" : "obj-1",
					"triscale" : 0.9,
					"htextcolor" : [ 0.870588, 0.870588, 0.870588, 1.0 ],
					"bgcolor" : [ 0.866667, 0.866667, 0.866667, 1.0 ],
					"fontsize" : 10.0,
					"patching_rect" : [ 172.0, 158.0, 35.0, 17.0 ],
					"numinlets" : 1,
					"numoutlets" : 2,
					"fontname" : "Verdana"
				}

			}
, 			{
				"box" : 				{
					"maxclass" : "newobj",
					"text" : "route int float",
					"outlettype" : [ "", "", "" ],
					"id" : "obj-2",
					"fontsize" : 10.0,
					"patching_rect" : [ 172.0, 103.0, 72.0, 17.0 ],
					"numinlets" : 1,
					"numoutlets" : 3,
					"fontname" : "Verdana"
				}

			}
, 			{
				"box" : 				{
					"maxclass" : "newobj",
					"text" : "fftout~ 1",
					"id" : "obj-3",
					"fontsize" : 10.0,
					"patching_rect" : [ 92.0, 236.0, 50.0, 17.0 ],
					"numinlets" : 2,
					"numoutlets" : 0,
					"fontname" : "Verdana"
				}

			}
, 			{
				"box" : 				{
					"maxclass" : "newobj",
					"text" : "in 2",
					"outlettype" : [ "" ],
					"id" : "obj-4",
					"fontsize" : 10.0,
					"patching_rect" : [ 172.0, 70.0, 25.0, 17.0 ],
					"numinlets" : 1,
					"numoutlets" : 1,
					"fontname" : "Verdana",
					"saved_object_attributes" : 					{

					}

				}

			}
, 			{
				"box" : 				{
					"maxclass" : "newobj",
					"text" : "gizmo~",
					"outlettype" : [ "signal", "signal" ],
					"id" : "obj-5",
					"fontsize" : 10.0,
					"patching_rect" : [ 92.0, 182.0, 90.0, 17.0 ],
					"numinlets" : 3,
					"numoutlets" : 2,
					"fontname" : "Verdana"
				}

			}
, 			{
				"box" : 				{
					"maxclass" : "newobj",
					"text" : "fftin~ 1",
					"outlettype" : [ "signal", "signal", "signal" ],
					"id" : "obj-6",
					"fontsize" : 10.0,
					"patching_rect" : [ 92.0, 70.0, 44.0, 17.0 ],
					"numinlets" : 1,
					"numoutlets" : 3,
					"fontname" : "Verdana"
				}

			}
, 			{
				"box" : 				{
					"maxclass" : "comment",
					"text" : "other messages get sent to gizmo~'s left inlet",
					"linecount" : 3,
					"id" : "obj-7",
					"fontsize" : 10.0,
					"patching_rect" : [ 246.0, 94.0, 94.0, 38.0 ],
					"numinlets" : 1,
					"numoutlets" : 0,
					"fontname" : "Verdana"
				}

			}
, 			{
				"box" : 				{
					"maxclass" : "comment",
					"text" : "right inlet (float) is for transposition factor",
					"linecount" : 2,
					"id" : "obj-8",
					"fontsize" : 10.0,
					"patching_rect" : [ 213.0, 158.0, 110.0, 28.0 ],
					"numinlets" : 1,
					"numoutlets" : 0,
					"fontname" : "Verdana"
				}

			}
 ],
		"lines" : [ 			{
				"patchline" : 				{
					"source" : [ "obj-2", 2 ],
					"destination" : [ "obj-5", 0 ],
					"hidden" : 0
				}

			}
, 			{
				"patchline" : 				{
					"source" : [ "obj-6", 0 ],
					"destination" : [ "obj-5", 0 ],
					"hidden" : 0
				}

			}
, 			{
				"patchline" : 				{
					"source" : [ "obj-5", 0 ],
					"destination" : [ "obj-3", 0 ],
					"hidden" : 0
				}

			}
, 			{
				"patchline" : 				{
					"source" : [ "obj-6", 1 ],
					"destination" : [ "obj-5", 1 ],
					"hidden" : 0
				}

			}
, 			{
				"patchline" : 				{
					"source" : [ "obj-5", 1 ],
					"destination" : [ "obj-3", 1 ],
					"hidden" : 0
				}

			}
, 			{
				"patchline" : 				{
					"source" : [ "obj-4", 0 ],
					"destination" : [ "obj-2", 0 ],
					"hidden" : 0
				}

			}
, 			{
				"patchline" : 				{
					"source" : [ "obj-2", 1 ],
					"destination" : [ "obj-1", 0 ],
					"hidden" : 0
				}

			}
, 			{
				"patchline" : 				{
					"source" : [ "obj-2", 0 ],
					"destination" : [ "obj-1", 0 ],
					"hidden" : 0
				}

			}
, 			{
				"patchline" : 				{
					"source" : [ "obj-1", 0 ],
					"destination" : [ "obj-5", 2 ],
					"hidden" : 0
				}

			}
 ]
	}

}
