{
	"patcher" : 	{
		"fileversion" : 1,
		"appversion" : 		{
			"major" : 7,
			"minor" : 0,
			"revision" : 0,
			"architecture" : "x86"
		}
,
		"rect" : [ 82.0, 215.0, 712.0, 760.0 ],
		"bgcolor" : [ 1.0, 1.0, 1.0, 0.0 ],
		"bglocked" : 0,
		"openinpresentation" : 1,
		"default_fontsize" : 12.0,
		"default_fontface" : 0,
		"default_fontname" : "Arial",
		"gridonopen" : 0,
		"gridsize" : [ 5.0, 5.0 ],
		"gridsnaponopen" : 0,
		"statusbarvisible" : 2,
		"toolbarvisible" : 1,
		"boxanimatetime" : 200,
		"imprint" : 0,
		"enablehscroll" : 1,
		"enablevscroll" : 1,
		"devicewidth" : 0.0,
		"description" : "",
		"digest" : "",
		"tags" : "",
		"boxes" : [ 			{
				"box" : 				{
					"appearance" : 2,
					"id" : "obj-7",
					"maxclass" : "live.numbox",
					"numinlets" : 1,
					"numoutlets" : 2,
					"outlettype" : [ "", "float" ],
					"parameter_enable" : 1,
					"patching_rect" : [ 528.75, 473.0, 90.0, 15.0 ],
					"presentation" : 1,
					"presentation_rect" : [ 82.0, 47.333332, 41.0, 15.0 ],
					"saved_attribute_attributes" : 					{
						"valueof" : 						{
							"parameter_longname" : "live.numbox[5]",
							"parameter_shortname" : "live.numbox",
							"parameter_type" : 0,
							"parameter_mmax" : 136.0,
							"parameter_unitstyle" : 8
						}

					}
,
					"varname" : "live.numbox[1]"
				}

			}
, 			{
				"box" : 				{
					"fontname" : "Arial",
					"fontsize" : 12.0,
					"id" : "obj-13",
					"linecount" : 2,
					"maxclass" : "newobj",
					"numinlets" : 1,
					"numoutlets" : 4,
					"outlettype" : [ "", "", "", "" ],
					"patching_rect" : [ 528.75, 432.0, 130.5, 33.0 ],
					"text" : "j.remote frequency @unit midinote",
					"varname" : "cf[3]"
				}

			}
, 			{
				"box" : 				{
					"fontname" : "Arial",
					"fontsize" : 12.0,
					"id" : "obj-4",
					"maxclass" : "newobj",
					"numinlets" : 1,
					"numoutlets" : 4,
					"outlettype" : [ "", "", "", "" ],
					"patching_rect" : [ 524.5, 519.0, 110.0, 20.0 ],
					"text" : "j.remote frequency",
					"varname" : "cf[2]"
				}

			}
, 			{
				"box" : 				{
					"id" : "obj-22",
					"maxclass" : "live.text",
					"mode" : 0,
					"numinlets" : 1,
					"numoutlets" : 2,
					"outlettype" : [ "", "" ],
					"parameter_enable" : 1,
					"patching_rect" : [ 524.5, 599.0, 40.0, 20.0 ],
					"presentation" : 1,
					"presentation_rect" : [ 82.0, 24.0, 41.0, 20.0 ],
					"saved_attribute_attributes" : 					{
						"valueof" : 						{
							"parameter_longname" : "live.text",
							"parameter_shortname" : "live.text",
							"parameter_type" : 2,
							"parameter_mmax" : 1.0,
							"parameter_enum" : [ "val1", "val2" ]
						}

					}
,
					"text" : "Clear",
					"varname" : "live.text"
				}

			}
, 			{
				"box" : 				{
					"fontname" : "Arial",
					"fontsize" : 12.0,
					"id" : "obj-21",
					"maxclass" : "newobj",
					"numinlets" : 1,
					"numoutlets" : 4,
					"outlettype" : [ "", "", "", "" ],
					"patching_rect" : [ 524.5, 625.0, 83.0, 20.0 ],
					"text" : "j.remote clear"
				}

			}
, 			{
				"box" : 				{
					"fontname" : "Arial",
					"fontsize" : 12.0,
					"id" : "obj-17",
					"maxclass" : "newobj",
					"numinlets" : 2,
					"numoutlets" : 2,
					"outlettype" : [ "", "" ],
					"patching_rect" : [ 524.5, 120.0, 139.0, 20.0 ],
					"text" : "substitute set setsymbol"
				}

			}
, 			{
				"box" : 				{
					"appearance" : 2,
					"id" : "obj-12",
					"maxclass" : "live.numbox",
					"numinlets" : 1,
					"numoutlets" : 2,
					"outlettype" : [ "", "float" ],
					"parameter_enable" : 1,
					"patching_rect" : [ 524.5, 333.0, 83.0, 15.0 ],
					"presentation" : 1,
					"presentation_rect" : [ 7.0, 65.666664, 116.0, 15.0 ],
					"saved_attribute_attributes" : 					{
						"valueof" : 						{
							"parameter_longname" : "live.numbox[4]",
							"parameter_shortname" : "live.numbox[4]",
							"parameter_type" : 0,
							"parameter_mmin" : -48.0,
							"parameter_mmax" : 48.0,
							"parameter_unitstyle" : 4
						}

					}
,
					"varname" : "live.numbox[4]"
				}

			}
, 			{
				"box" : 				{
					"appearance" : 2,
					"id" : "obj-14",
					"maxclass" : "live.numbox",
					"numinlets" : 1,
					"numoutlets" : 2,
					"outlettype" : [ "", "float" ],
					"parameter_enable" : 1,
					"patching_rect" : [ 524.5, 249.0, 94.0, 15.0 ],
					"presentation" : 1,
					"presentation_rect" : [ 7.0, 84.0, 116.0, 15.0 ],
					"saved_attribute_attributes" : 					{
						"valueof" : 						{
							"parameter_longname" : "live.numbox[2]",
							"parameter_shortname" : "live.numbox",
							"parameter_type" : 0,
							"parameter_mmin" : 0.001,
							"parameter_mmax" : 8.0,
							"parameter_unitstyle" : 9,
							"parameter_units" : "Octaves"
						}

					}
,
					"varname" : "live.numbox[2]"
				}

			}
, 			{
				"box" : 				{
					"appearance" : 2,
					"id" : "obj-19",
					"maxclass" : "live.numbox",
					"numinlets" : 1,
					"numoutlets" : 2,
					"outlettype" : [ "", "float" ],
					"parameter_enable" : 1,
					"patching_rect" : [ 406.75, 441.0, 90.0, 15.0 ],
					"presentation" : 1,
					"presentation_rect" : [ 7.0, 47.333332, 69.0, 15.0 ],
					"saved_attribute_attributes" : 					{
						"valueof" : 						{
							"parameter_longname" : "live.numbox",
							"parameter_shortname" : "live.numbox",
							"parameter_type" : 0,
							"parameter_mmin" : 20.0,
							"parameter_mmax" : 20000.0,
							"parameter_unitstyle" : 3
						}

					}
,
					"varname" : "live.numbox"
				}

			}
, 			{
				"box" : 				{
					"id" : "obj-15",
					"maxclass" : "live.menu",
					"numinlets" : 1,
					"numoutlets" : 3,
					"outlettype" : [ "", "", "float" ],
					"parameter_enable" : 1,
					"patching_rect" : [ 524.5, 151.0, 100.0, 15.0 ],
					"presentation" : 1,
					"presentation_rect" : [ 7.0, 26.5, 69.0, 15.0 ],
					"saved_attribute_attributes" : 					{
						"valueof" : 						{
							"parameter_longname" : "live.menu",
							"parameter_shortname" : "live.menu",
							"parameter_type" : 2,
							"parameter_enum" : [ "lowpass", "highpass", "bandpass", "bandstop", "peaknotch", "lowshelf", "highshelf" ]
						}

					}
,
					"varname" : "live.menu"
				}

			}
, 			{
				"box" : 				{
					"autoout" : 1,
					"bgcolor" : [ 0.094118, 0.113725, 0.137255, 1.0 ],
					"bordercolor" : [ 0.094118, 0.113725, 0.137255, 0.0 ],
					"bwidthcolor" : [ 0.301961, 0.337255, 0.403922, 0.0 ],
					"curvecolor" : [ 1.0, 0.603922, 0.0, 1.0 ],
					"fgcolor" : [ 0.094118, 0.113725, 0.137255, 1.0 ],
					"fontname" : "Arial",
					"fontsize" : 8.0,
					"hbwidthcolor" : [ 1.0, 1.0, 1.0, 1.0 ],
					"hcurvecolor" : [ 1.0, 0.603922, 0.0, 1.0 ],
					"id" : "obj-31",
					"markercolor" : [ 0.301961, 0.337255, 0.403922, 1.0 ],
					"maxclass" : "filtergraph~",
					"nfilters" : 1,
					"numdisplay" : 0,
					"numinlets" : 8,
					"numoutlets" : 7,
					"outlettype" : [ "list", "float", "float", "float", "float", "list", "int" ],
					"parameter_enable" : 0,
					"patching_rect" : [ 15.0, 255.0, 160.0, 46.0 ],
					"presentation" : 1,
					"presentation_rect" : [ 129.0, 24.0, 144.0, 75.0 ],
					"prototypename" : "M4L.black",
					"range" : [ 0.041667, 24.0 ],
					"setfilter" : [ 0, 6, 1, 1, 0, 103.504562, 0.097812, 1.0, 0.0, 0.0, 0.0, 0.0, 0.0, 0.0 ],
					"textcolor" : [ 0.666667, 0.698039, 0.717647, 1.0 ],
					"varname" : "FilterGraph"
				}

			}
, 			{
				"box" : 				{
					"bgmode" : 0,
					"border" : 0,
					"clickthrough" : 0,
					"enablehscroll" : 0,
					"enablevscroll" : 0,
					"fontname" : "Arial",
					"fontsize" : 12.0,
					"id" : "obj-9",
					"lockeddragscroll" : 0,
					"maxclass" : "newobj",
					"numinlets" : 1,
					"numoutlets" : 1,
					"offset" : [ 0.0, 0.0 ],
					"outlettype" : [ "" ],
					"patching_rect" : [ 117.5, 317.0, 119.0, 20.0 ],
					"text" : "j.q2octavebandwidth",
					"viewvisibility" : 0
				}

			}
, 			{
				"box" : 				{
					"bgmode" : 0,
					"border" : 0,
					"clickthrough" : 0,
					"enablehscroll" : 0,
					"enablevscroll" : 0,
					"fontname" : "Arial",
					"fontsize" : 12.0,
					"id" : "obj-8",
					"lockeddragscroll" : 0,
					"maxclass" : "newobj",
					"numinlets" : 1,
					"numoutlets" : 1,
					"offset" : [ 0.0, 0.0 ],
					"outlettype" : [ "" ],
					"patching_rect" : [ 117.5, 376.0, 119.0, 20.0 ],
					"text" : "j.octavebandwidth2q",
					"viewvisibility" : 0
				}

			}
, 			{
				"box" : 				{
					"fontname" : "Arial",
					"fontsize" : 12.0,
					"id" : "obj-5",
					"maxclass" : "newobj",
					"numinlets" : 1,
					"numoutlets" : 3,
					"outlettype" : [ "signal", "", "" ],
					"patching_rect" : [ 464.5, 22.0, 125.0, 20.0 ],
					"text" : "j.receive~ audio/out.2"
				}

			}
, 			{
				"box" : 				{
					"fontname" : "Arial",
					"fontsize" : 12.0,
					"id" : "obj-6",
					"maxclass" : "newobj",
					"numinlets" : 1,
					"numoutlets" : 3,
					"outlettype" : [ "signal", "", "" ],
					"patching_rect" : [ 331.0, 22.0, 125.0, 20.0 ],
					"text" : "j.receive~ audio/out.1"
				}

			}
, 			{
				"box" : 				{
					"annotation" : "amplitude of output signal 2",
					"id" : "obj-50",
					"maxclass" : "live.meter~",
					"numinlets" : 1,
					"numoutlets" : 1,
					"outlettype" : [ "list" ],
					"patching_rect" : [ 472.0, 60.0, 4.0, 77.0 ],
					"presentation" : 1,
					"presentation_rect" : [ 288.0, 24.0, 5.0, 75.0 ]
				}

			}
, 			{
				"box" : 				{
					"annotation" : "amplitude of output signal 1",
					"id" : "obj-49",
					"maxclass" : "live.meter~",
					"numinlets" : 1,
					"numoutlets" : 1,
					"outlettype" : [ "list" ],
					"patching_rect" : [ 338.5, 60.0, 4.0, 80.0 ],
					"presentation" : 1,
					"presentation_rect" : [ 281.0, 24.0, 5.0, 75.0 ]
				}

			}
, 			{
				"box" : 				{
					"fontname" : "Arial",
					"fontsize" : 12.0,
					"id" : "obj-11",
					"maxclass" : "newobj",
					"numinlets" : 1,
					"numoutlets" : 3,
					"outlettype" : [ "", "", "" ],
					"patching_rect" : [ 144.0, 175.0, 80.0, 20.0 ],
					"text" : "j.receive type",
					"varname" : "filtertype[2]"
				}

			}
, 			{
				"box" : 				{
					"fontname" : "Arial",
					"fontsize" : 12.0,
					"id" : "obj-10",
					"maxclass" : "newobj",
					"numinlets" : 1,
					"numoutlets" : 4,
					"outlettype" : [ "", "", "", "" ],
					"patching_rect" : [ 524.5, 173.0, 80.0, 20.0 ],
					"text" : "j.remote type",
					"varname" : "filtertype[1]"
				}

			}
, 			{
				"box" : 				{
					"fontname" : "Arial",
					"fontsize" : 12.0,
					"id" : "obj-1",
					"linecount" : 3,
					"maxclass" : "newobj",
					"numinlets" : 1,
					"numoutlets" : 4,
					"outlettype" : [ "", "", "", "" ],
					"patching_rect" : [ 83.333336, 438.0, 131.0, 47.0 ],
					"text" : "j.remote gain @dataspace gain @unit linear",
					"varname" : "filtergain[1]"
				}

			}
, 			{
				"box" : 				{
					"fontname" : "Arial",
					"fontsize" : 12.0,
					"id" : "obj-2",
					"maxclass" : "newobj",
					"numinlets" : 1,
					"numoutlets" : 4,
					"outlettype" : [ "", "", "", "" ],
					"patching_rect" : [ 117.5, 348.0, 154.0, 20.0 ],
					"text" : "j.remote octave_bandwidth",
					"varname" : "q[1]"
				}

			}
, 			{
				"box" : 				{
					"fontname" : "Arial",
					"fontsize" : 12.0,
					"id" : "obj-3",
					"maxclass" : "newobj",
					"numinlets" : 1,
					"numoutlets" : 4,
					"outlettype" : [ "", "", "", "" ],
					"patching_rect" : [ 49.166664, 508.0, 110.0, 20.0 ],
					"text" : "j.remote frequency",
					"varname" : "cf[1]"
				}

			}
, 			{
				"box" : 				{
					"fontname" : "Arial",
					"fontsize" : 12.0,
					"id" : "obj-20",
					"maxclass" : "newobj",
					"numinlets" : 1,
					"numoutlets" : 3,
					"outlettype" : [ "", "", "" ],
					"patching_rect" : [ 15.0, 175.0, 111.0, 20.0 ],
					"text" : "j.receive filtergraph"
				}

			}
, 			{
				"box" : 				{
					"fontname" : "Arial",
					"fontsize" : 12.0,
					"id" : "obj-23",
					"maxclass" : "newobj",
					"numinlets" : 1,
					"numoutlets" : 4,
					"outlettype" : [ "", "", "", "" ],
					"patching_rect" : [ 524.5, 348.0, 83.0, 20.0 ],
					"text" : "j.remote gain",
					"varname" : "filtergain"
				}

			}
, 			{
				"box" : 				{
					"fontname" : "Arial",
					"fontsize" : 12.0,
					"id" : "obj-24",
					"maxclass" : "newobj",
					"numinlets" : 1,
					"numoutlets" : 4,
					"outlettype" : [ "", "", "", "" ],
					"patching_rect" : [ 524.5, 273.0, 154.0, 20.0 ],
					"text" : "j.remote octave_bandwidth",
					"varname" : "q"
				}

			}
, 			{
				"box" : 				{
					"fontname" : "Arial",
					"fontsize" : 12.0,
					"id" : "obj-25",
					"maxclass" : "newobj",
					"numinlets" : 1,
					"numoutlets" : 4,
					"outlettype" : [ "", "", "", "" ],
					"patching_rect" : [ 406.75, 464.0, 110.0, 20.0 ],
					"text" : "j.remote frequency",
					"varname" : "cf"
				}

			}
, 			{
				"box" : 				{
					"comment" : "",
					"id" : "obj-37",
					"maxclass" : "outlet",
					"numinlets" : 1,
					"numoutlets" : 0,
					"patching_rect" : [ 35.0, 707.0, 25.0, 25.0 ]
				}

			}
, 			{
				"box" : 				{
					"comment" : "",
					"id" : "obj-40",
					"maxclass" : "inlet",
					"numinlets" : 0,
					"numoutlets" : 1,
					"outlettype" : [ "" ],
					"patching_rect" : [ 35.0, 625.0, 25.0, 25.0 ]
				}

			}
, 			{
				"box" : 				{
					"fontname" : "Arial",
					"fontsize" : 12.0,
					"frgb" : 0.0,
					"id" : "obj-41",
					"linecount" : 3,
					"maxclass" : "comment",
					"numinlets" : 1,
					"numoutlets" : 0,
					"patching_rect" : [ 102.0, 667.0, 256.0, 47.0 ],
					"text" : "Conversion from freq, gain and q to biquad coefficients has to take place inside the poly~ (.alg) in case the poly is up- or downsampled."
				}

			}
, 			{
				"box" : 				{
					"fontname" : "Arial",
					"fontsize" : 12.0,
					"id" : "obj-42",
					"maxclass" : "newobj",
					"numinlets" : 1,
					"numoutlets" : 2,
					"outlettype" : [ "", "" ],
					"patching_rect" : [ 35.0, 667.0, 41.0, 20.0 ],
					"text" : "j.view",
					"varname" : "j.model"
				}

			}
, 			{
				"box" : 				{
					"id" : "obj-44",
					"maxclass" : "j.ui",
					"numinlets" : 1,
					"numoutlets" : 1,
					"outlettype" : [ "" ],
					"patching_rect" : [ 0.0, 0.0, 300.0, 105.0 ],
					"presentation" : 1,
					"presentation_rect" : [ 0.0, 0.0, 300.0, 105.0 ],
					"text" : "/no_model_address"
				}

			}
 ],
		"lines" : [ 			{
				"patchline" : 				{
					"destination" : [ "obj-31", 6 ],
					"disabled" : 0,
					"hidden" : 0,
					"midpoints" : [ 130.166672, 500.0, 268.523804, 500.0, 268.523804, 240.0, 145.357147, 240.0 ],
					"source" : [ "obj-1", 1 ]
				}

			}
, 			{
				"patchline" : 				{
					"destination" : [ "obj-15", 0 ],
					"disabled" : 0,
					"hidden" : 0,
					"source" : [ "obj-10", 2 ]
				}

			}
, 			{
				"patchline" : 				{
					"destination" : [ "obj-17", 0 ],
					"disabled" : 0,
					"hidden" : 0,
					"midpoints" : [ 534.0, 202.0, 513.0, 202.0, 513.0, 110.0, 534.0, 110.0 ],
					"source" : [ "obj-10", 0 ]
				}

			}
, 			{
				"patchline" : 				{
					"destination" : [ "obj-31", 0 ],
					"disabled" : 0,
					"hidden" : 0,
					"source" : [ "obj-11", 0 ]
				}

			}
, 			{
				"patchline" : 				{
					"destination" : [ "obj-23", 0 ],
					"disabled" : 0,
					"hidden" : 0,
					"source" : [ "obj-12", 0 ]
				}

			}
, 			{
				"patchline" : 				{
					"destination" : [ "obj-7", 0 ],
					"disabled" : 0,
					"hidden" : 0,
					"source" : [ "obj-13", 0 ]
				}

			}
, 			{
				"patchline" : 				{
					"destination" : [ "obj-24", 0 ],
					"disabled" : 0,
					"hidden" : 0,
					"source" : [ "obj-14", 0 ]
				}

			}
, 			{
				"patchline" : 				{
					"destination" : [ "obj-10", 0 ],
					"disabled" : 0,
					"hidden" : 0,
					"source" : [ "obj-15", 1 ]
				}

			}
, 			{
				"patchline" : 				{
					"destination" : [ "obj-15", 0 ],
					"disabled" : 0,
					"hidden" : 0,
					"source" : [ "obj-17", 0 ]
				}

			}
, 			{
				"patchline" : 				{
					"destination" : [ "obj-25", 0 ],
					"disabled" : 0,
					"hidden" : 0,
					"source" : [ "obj-19", 0 ]
				}

			}
, 			{
				"patchline" : 				{
					"destination" : [ "obj-8", 0 ],
					"disabled" : 0,
					"hidden" : 0,
					"source" : [ "obj-2", 1 ]
				}

			}
, 			{
				"patchline" : 				{
					"color" : [ 1.0, 0.890196, 0.090196, 1.0 ],
					"destination" : [ "obj-31", 0 ],
					"disabled" : 0,
					"hidden" : 0,
					"source" : [ "obj-20", 0 ]
				}

			}
, 			{
				"patchline" : 				{
					"destination" : [ "obj-22", 0 ],
					"disabled" : 0,
					"hidden" : 0,
					"source" : [ "obj-21", 2 ]
				}

			}
, 			{
				"patchline" : 				{
					"destination" : [ "obj-21", 0 ],
					"disabled" : 0,
					"hidden" : 0,
					"source" : [ "obj-22", 0 ]
				}

			}
, 			{
				"patchline" : 				{
					"destination" : [ "obj-12", 0 ],
					"disabled" : 0,
					"hidden" : 0,
					"midpoints" : [ 534.0, 404.0, 507.0, 404.0, 507.0, 321.0, 534.0, 321.0 ],
					"source" : [ "obj-23", 0 ]
				}

			}
, 			{
				"patchline" : 				{
					"destination" : [ "obj-14", 0 ],
					"disabled" : 0,
					"hidden" : 0,
					"midpoints" : [ 534.0, 302.0, 506.5, 302.0, 506.5, 239.0, 534.0, 239.0 ],
					"source" : [ "obj-24", 0 ]
				}

			}
, 			{
				"patchline" : 				{
					"destination" : [ "obj-19", 0 ],
					"disabled" : 0,
					"hidden" : 0,
					"midpoints" : [ 416.25, 493.0, 388.416687, 493.0, 388.416687, 431.0, 416.25, 431.0 ],
					"source" : [ "obj-25", 0 ]
				}

			}
, 			{
				"patchline" : 				{
					"destination" : [ "obj-31", 5 ],
					"disabled" : 0,
					"hidden" : 0,
					"midpoints" : [ 89.0, 539.0, 284.964294, 539.0, 284.964294, 232.0, 125.214287, 232.0 ],
					"source" : [ "obj-3", 1 ]
				}

			}
, 			{
				"patchline" : 				{
					"destination" : [ "obj-1", 0 ],
					"disabled" : 0,
					"hidden" : 0,
					"source" : [ "obj-31", 2 ]
				}

			}
, 			{
				"patchline" : 				{
					"destination" : [ "obj-3", 0 ],
					"disabled" : 0,
					"hidden" : 0,
					"source" : [ "obj-31", 1 ]
				}

			}
, 			{
				"patchline" : 				{
					"destination" : [ "obj-9", 0 ],
					"disabled" : 0,
					"hidden" : 0,
					"source" : [ "obj-31", 3 ]
				}

			}
, 			{
				"patchline" : 				{
					"destination" : [ "obj-42", 0 ],
					"disabled" : 0,
					"hidden" : 0,
					"source" : [ "obj-40", 0 ]
				}

			}
, 			{
				"patchline" : 				{
					"destination" : [ "obj-37", 0 ],
					"disabled" : 0,
					"hidden" : 0,
					"source" : [ "obj-42", 0 ]
				}

			}
, 			{
				"patchline" : 				{
					"destination" : [ "obj-50", 0 ],
					"disabled" : 0,
					"hidden" : 0,
					"source" : [ "obj-5", 0 ]
				}

			}
, 			{
				"patchline" : 				{
					"destination" : [ "obj-49", 0 ],
					"disabled" : 0,
					"hidden" : 0,
					"source" : [ "obj-6", 0 ]
				}

			}
, 			{
				"patchline" : 				{
					"destination" : [ "obj-13", 0 ],
					"disabled" : 0,
					"hidden" : 0,
					"midpoints" : [ 538.25, 497.0, 521.25, 497.0, 521.25, 422.0, 538.25, 422.0 ],
					"source" : [ "obj-7", 0 ]
				}

			}
, 			{
				"patchline" : 				{
					"destination" : [ "obj-31", 7 ],
					"disabled" : 0,
					"hidden" : 0,
					"midpoints" : [ 127.0, 402.0, 249.0, 402.0, 249.0, 252.0, 165.5, 252.0 ],
					"source" : [ "obj-8", 0 ]
				}

			}
, 			{
				"patchline" : 				{
					"destination" : [ "obj-2", 0 ],
					"disabled" : 0,
					"hidden" : 0,
					"source" : [ "obj-9", 0 ]
				}

			}
 ],
		"parameters" : 		{
			"obj-12" : [ "live.numbox[4]", "live.numbox[4]", 0 ],
			"obj-7" : [ "live.numbox[5]", "live.numbox", 0 ],
			"obj-14" : [ "live.numbox[2]", "live.numbox", 0 ],
			"obj-15" : [ "live.menu", "live.menu", 0 ],
			"obj-19" : [ "live.numbox", "live.numbox", 0 ],
			"obj-22" : [ "live.text", "live.text", 0 ]
		}
,
		"dependency_cache" : [ 			{
				"name" : "j.octavebandwidth2q.maxpat",
				"bootpath" : "~/dev/Jamoma/Jamoma/Implementations/Max/Jamoma/patchers/components/audio/octavebandwidth2q",
				"patcherrelativepath" : "../../../../../../../../../../../../ntations/Max/Jamoma/patchers/components/audio/octavebandwidth2q",
				"type" : "JSON",
				"implicit" : 1
			}
, 			{
				"name" : "j.q2octavebandwidth.maxpat",
				"bootpath" : "~/dev/Jamoma/Jamoma/Implementations/Max/Jamoma/patchers/components/audio/q2octavebandwith",
				"patcherrelativepath" : "../../../../../../../../../../../../ntations/Max/Jamoma/patchers/components/audio/q2octavebandwith",
				"type" : "JSON",
				"implicit" : 1
			}
, 			{
				"name" : "j.ui.mxo",
				"type" : "iLaX"
			}
, 			{
				"name" : "j.view.mxo",
				"type" : "iLaX"
			}
, 			{
				"name" : "j.remote.mxo",
				"type" : "iLaX"
			}
, 			{
				"name" : "j.receive.mxo",
				"type" : "iLaX"
			}
, 			{
				"name" : "j.receive~.mxo",
				"type" : "iLaX"
			}
 ]
	}

}
