{
	"patcher" : 	{
		"fileversion" : 1,
		"rect" : [ 263.0, 44.0, 876.0, 687.0 ],
		"bglocked" : 0,
		"defrect" : [ 263.0, 44.0, 876.0, 687.0 ],
		"openrect" : [ 0.0, 0.0, 0.0, 0.0 ],
		"openinpresentation" : 0,
		"default_fontsize" : 10.0,
		"default_fontface" : 0,
		"default_fontname" : "Verdana",
		"gridonopen" : 0,
		"gridsize" : [ 5.0, 5.0 ],
		"gridsnaponopen" : 0,
		"toolbarvisible" : 1,
		"boxanimatetime" : 200,
		"imprint" : 0,
		"boxes" : [ 			{
				"box" : 				{
					"args" : [ "@name", "jcom.spray%", "@description", "Distribute a video over multiple outlets" ],
					"bgmode" : 1,
					"id" : "obj-1",
					"maxclass" : "bpatcher",
					"name" : "jcom.maxhelpui.maxpat",
					"numinlets" : 1,
					"numoutlets" : 0,
					"patching_rect" : [ 0.0, 0.0, 876.0, 70.0 ],
					"varname" : "maxhelpui"
				}

			}
, 			{
				"box" : 				{
					"fontname" : "Verdana",
					"fontsize" : 10.0,
					"id" : "obj-24",
					"maxclass" : "newobj",
					"numinlets" : 1,
					"numoutlets" : 1,
					"outlettype" : [ "jit_matrix" ],
					"patching_rect" : [ 30.0, 332.0, 155.0, 19.0 ],
					"text" : "jcom.autosize% @width 800"
				}

			}
, 			{
				"box" : 				{
					"depthbuffer" : 0,
					"id" : "obj-23",
					"maxclass" : "jit.pwindow",
					"numinlets" : 1,
					"numoutlets" : 2,
					"outlettype" : [ "", "" ],
					"patching_rect" : [ 30.0, 359.0, 800.0, 400.0 ],
					"presentation_rect" : [ 182.0, 394.0, 800.0, 400.0 ]
				}

			}
, 			{
				"box" : 				{
					"fontname" : "Verdana",
					"fontsize" : 10.0,
					"id" : "obj-22",
					"maxclass" : "newobj",
					"numinlets" : 8,
					"numoutlets" : 2,
					"outlettype" : [ "jit_matrix", "" ],
					"patching_rect" : [ 30.0, 304.0, 173.0, 19.0 ],
					"text" : "jit.glue @columns 4 @rows 2"
				}

			}
, 			{
				"box" : 				{
					"id" : "obj-2",
					"maxclass" : "button",
					"numinlets" : 1,
					"numoutlets" : 1,
					"outlettype" : [ "bang" ],
					"patching_rect" : [ 30.0, 239.0, 20.0, 20.0 ]
				}

			}
, 			{
				"box" : 				{
					"fontname" : "Verdana",
					"fontsize" : 10.0,
					"id" : "obj-3",
					"maxclass" : "comment",
					"numinlets" : 1,
					"numoutlets" : 0,
					"patching_rect" : [ 54.0, 241.0, 106.0, 19.0 ],
					"text" : "Output with a bang"
				}

			}
, 			{
				"box" : 				{
					"fontname" : "Verdana",
					"fontsize" : 10.0,
					"hidden" : 1,
					"id" : "obj-4",
					"maxclass" : "newobj",
					"numinlets" : 1,
					"numoutlets" : 1,
					"outlettype" : [ "" ],
					"patching_rect" : [ 52.0, 188.0, 66.0, 19.0 ],
					"text" : "loadmess 1"
				}

			}
, 			{
				"box" : 				{
					"id" : "obj-5",
					"maxclass" : "toggle",
					"numinlets" : 1,
					"numoutlets" : 1,
					"outlettype" : [ "int" ],
					"patching_rect" : [ 30.0, 187.0, 20.0, 20.0 ]
				}

			}
, 			{
				"box" : 				{
					"fontname" : "Verdana",
					"fontsize" : 10.0,
					"id" : "obj-7",
					"maxclass" : "newobj",
					"numinlets" : 2,
					"numoutlets" : 1,
					"outlettype" : [ "bang" ],
					"patching_rect" : [ 30.0, 212.0, 70.0, 19.0 ],
					"text" : "metro 1000"
				}

			}
, 			{
				"box" : 				{
					"color" : [ 0.619608, 0.0, 0.360784, 0.698039 ],
					"fontname" : "Verdana",
					"fontsize" : 10.0,
					"id" : "obj-16",
					"maxclass" : "newobj",
					"numinlets" : 1,
					"numoutlets" : 8,
					"outlettype" : [ "jit_matrix", "jit_matrix", "jit_matrix", "jit_matrix", "jit_matrix", "jit_matrix", "jit_matrix", "jit_matrix" ],
					"patching_rect" : [ 30.0, 271.0, 173.0, 19.0 ],
					"text" : "jcom.spray%"
				}

			}
, 			{
				"box" : 				{
					"args" : [ "/input%" ],
					"id" : "obj-17",
					"maxclass" : "bpatcher",
					"name" : "jmod.input%.maxpat",
					"numinlets" : 1,
					"numoutlets" : 2,
					"outlettype" : [ "", "" ],
					"patching_rect" : [ 30.0, 105.0, 300.0, 70.0 ],
					"presentation_rect" : [ 0.0, 0.0, 300.0, 70.0 ],
					"varname" : "/input%"
				}

			}
 ],
		"lines" : [ 			{
				"patchline" : 				{
					"destination" : [ "obj-2", 0 ],
					"hidden" : 0,
					"midpoints" : [  ],
					"source" : [ "obj-7", 0 ]
				}

			}
, 			{
				"patchline" : 				{
					"destination" : [ "obj-16", 0 ],
					"hidden" : 0,
					"midpoints" : [ 320.5, 266.5, 39.5, 266.5 ],
					"source" : [ "obj-17", 1 ]
				}

			}
, 			{
				"patchline" : 				{
					"destination" : [ "obj-22", 7 ],
					"hidden" : 0,
					"midpoints" : [  ],
					"source" : [ "obj-16", 7 ]
				}

			}
, 			{
				"patchline" : 				{
					"destination" : [ "obj-22", 6 ],
					"hidden" : 0,
					"midpoints" : [  ],
					"source" : [ "obj-16", 6 ]
				}

			}
, 			{
				"patchline" : 				{
					"destination" : [ "obj-22", 5 ],
					"hidden" : 0,
					"midpoints" : [  ],
					"source" : [ "obj-16", 5 ]
				}

			}
, 			{
				"patchline" : 				{
					"destination" : [ "obj-22", 4 ],
					"hidden" : 0,
					"midpoints" : [  ],
					"source" : [ "obj-16", 4 ]
				}

			}
, 			{
				"patchline" : 				{
					"destination" : [ "obj-22", 3 ],
					"hidden" : 0,
					"midpoints" : [  ],
					"source" : [ "obj-16", 3 ]
				}

			}
, 			{
				"patchline" : 				{
					"destination" : [ "obj-22", 2 ],
					"hidden" : 0,
					"midpoints" : [  ],
					"source" : [ "obj-16", 2 ]
				}

			}
, 			{
				"patchline" : 				{
					"destination" : [ "obj-22", 1 ],
					"hidden" : 0,
					"midpoints" : [  ],
					"source" : [ "obj-16", 1 ]
				}

			}
, 			{
				"patchline" : 				{
					"destination" : [ "obj-22", 0 ],
					"hidden" : 0,
					"midpoints" : [  ],
					"source" : [ "obj-16", 0 ]
				}

			}
, 			{
				"patchline" : 				{
					"destination" : [ "obj-16", 0 ],
					"hidden" : 0,
					"midpoints" : [  ],
					"source" : [ "obj-2", 0 ]
				}

			}
, 			{
				"patchline" : 				{
					"destination" : [ "obj-7", 0 ],
					"hidden" : 0,
					"midpoints" : [  ],
					"source" : [ "obj-5", 0 ]
				}

			}
, 			{
				"patchline" : 				{
					"destination" : [ "obj-5", 0 ],
					"hidden" : 1,
					"midpoints" : [  ],
					"source" : [ "obj-4", 0 ]
				}

			}
, 			{
				"patchline" : 				{
					"destination" : [ "obj-24", 0 ],
					"hidden" : 0,
					"midpoints" : [  ],
					"source" : [ "obj-22", 0 ]
				}

			}
, 			{
				"patchline" : 				{
					"destination" : [ "obj-23", 0 ],
					"hidden" : 0,
					"midpoints" : [ 39.5, 363.0, 39.5, 363.0 ],
					"source" : [ "obj-24", 0 ]
				}

			}
 ]
	}

}
